STARTFONT 2.1
COMMENT  
COMMENT   $Id: ttext-grc-ldh.bdf,v 1.5 2002/01/15 15:46:39 james Exp $
COMMENT  
COMMENT   Copyright (C) James Fidell 1995-2002.
COMMENT  
COMMENT   Permission to use, copy, modify and distribute this
COMMENT   software and its documentation for any purpose is hereby
COMMENT   granted without fee, provided that the above copyright notice
COMMENT   appear in all copies and that both that copyright notice and
COMMENT   this permission notice appear in supporting documentation,
COMMENT   and that the name of the copyright holder not be used in
COMMENT   advertising or publicity pertaining to distribution of
COMMENT   the software without specific, written prior permission.
COMMENT   The copyright holder makes no representations about the
COMMENT   suitability of this software for any purpose. It is provided
COMMENT   "as is" without express or implied warranty.
COMMENT
COMMENT   THE COPYRIGHT HOLDER DISCLAIMS ALL WARRANTIES WITH REGARD
COMMENT   TO THIS SOFTWARE, INCLUDING ALL IMPLIED WARRANTIES OF
COMMENT   MERCHANTABILITY AND FITNESS, IN NO EVENT SHALL THE COPYRIGHT
COMMENT   HOLDER BE LIABLE FOR ANY SPECIAL, INDIRECT OR CONSEQUENTIAL
COMMENT   DAMAGES OR ANY DAMAGES WHATSOEVER RESULTING FROM LOSS OF USE,
COMMENT   DATA OR PROFITS, WHETHER IN AN ACTION OF CONTRACT, NEGLIGENCE
COMMENT   OR OTHER TORTIOUS ACTION, ARISING OUT OF OR IN CONNECTION WITH
COMMENT   THE USE OR PERFORMANCE OF THIS SOFTWARE.
COMMENT
COMMENT
COMMENT   Revision History
COMMENT
COMMENT   $Log: ttext-grc-ldh.bdf,v $
COMMENT   Revision 1.5  2002/01/15 15:46:39  james
COMMENT   *** empty log message ***
COMMENT
COMMENT   Revision 1.4  2000/09/08 00:08:57  james
COMMENT   more copyright message updates
COMMENT
COMMENT   Revision 1.3  2000/08/16 17:58:24  james
COMMENT   Update copyright message
COMMENT
COMMENT   Revision 1.2  1996/09/24 23:05:24  james
COMMENT   Update copyright dates.
COMMENT
COMMENT   Revision 1.1  1996/09/21 18:44:31  james
COMMENT   Creation of double height fonts.
COMMENT
COMMENT
FONT ttext-grc-ldh
SIZE 19 100 100
FONTBOUNDINGBOX 12 19 0 0
STARTPROPERTIES 13
FONTNAME_REGISTRY ""
FOUNDRY "Misc"
FAMILY_NAME "ttext"
WEIGHT_NAME "Medium"
SLANT "R"
PIXEL_SIZE 19
POINT_SIZE 190
RESOLUTION_X 100
RESOLUTION_Y 100
SPACING "C"
DEFAULT_CHAR 32
FONT_DESCENT 0
FONT_ASCENT 19
ENDPROPERTIES
CHARS 192
STARTCHAR space
ENCODING 32
SWIDTH 720 0
DWIDTH 12 0
BBX 12 19 0 0
BITMAP
0000
0000
0000
0000
0000
0000
0000
0000
0000
0000
0000
0000
0000
0000
0000
0000
0000
0000
0000
ENDCHAR
STARTCHAR graphic01
ENCODING 33
SWIDTH 720 0
DWIDTH 12 0
BBX 12 19 0 0
BITMAP
0000
0000
0000
0000
0000
0000
0000
0000
0000
0000
0000
0000
0000
0000
0000
0000
0000
0000
0000
ENDCHAR
STARTCHAR graphic02
ENCODING 34
SWIDTH 720 0
DWIDTH 12 0
BBX 12 19 0 0
BITMAP
0000
0000
0000
0000
0000
0000
0000
0000
0000
0000
0000
0000
0000
0000
0000
0000
0000
0000
0000
ENDCHAR
STARTCHAR numbersign
ENCODING 95
SWIDTH 720 0
DWIDTH 12 0
BBX 12 19 0 0
BITMAP
3ff0
0cc0
0cc0
0cc0
0cc0
0cc0
0cc0
0cc0
0cc0
0000
0000
0000
0000
0000
0000
0000
0000
0000
0000
ENDCHAR
STARTCHAR graphic04
ENCODING 36
SWIDTH 720 0
DWIDTH 12 0
BBX 12 19 0 0
BITMAP
fc00
fc00
fc00
fc00
fc00
0000
0000
0000
0000
0000
0000
0000
0000
0000
0000
0000
0000
0000
0000
ENDCHAR
STARTCHAR graphic05
ENCODING 37
SWIDTH 720 0
DWIDTH 12 0
BBX 12 19 0 0
BITMAP
fc00
fc00
fc00
fc00
fc00
0000
0000
0000
0000
0000
0000
0000
0000
0000
0000
0000
0000
0000
0000
ENDCHAR
STARTCHAR graphic06
ENCODING 38
SWIDTH 720 0
DWIDTH 12 0
BBX 12 19 0 0
BITMAP
fc00
fc00
fc00
fc00
fc00
0000
0000
0000
0000
0000
0000
0000
0000
0000
0000
0000
0000
0000
0000
ENDCHAR
STARTCHAR graphic07
ENCODING 39
SWIDTH 720 0
DWIDTH 12 0
BBX 12 19 0 0
BITMAP
fc00
fc00
fc00
fc00
fc00
0000
0000
0000
0000
0000
0000
0000
0000
0000
0000
0000
0000
0000
0000
ENDCHAR
STARTCHAR graphic08
ENCODING 40
SWIDTH 720 0
DWIDTH 12 0
BBX 12 19 0 0
BITMAP
03f0
03f0
03f0
03f0
03f0
0000
0000
0000
0000
0000
0000
0000
0000
0000
0000
0000
0000
0000
0000
ENDCHAR
STARTCHAR graphic09
ENCODING 41
SWIDTH 720 0
DWIDTH 12 0
BBX 12 19 0 0
BITMAP
03f0
03f0
03f0
03f0
03f0
0000
0000
0000
0000
0000
0000
0000
0000
0000
0000
0000
0000
0000
0000
ENDCHAR
STARTCHAR graphic10
ENCODING 42
SWIDTH 720 0
DWIDTH 12 0
BBX 12 19 0 0
BITMAP
03f0
03f0
03f0
03f0
03f0
0000
0000
0000
0000
0000
0000
0000
0000
0000
0000
0000
0000
0000
0000
ENDCHAR
STARTCHAR graphic11
ENCODING 43
SWIDTH 720 0
DWIDTH 12 0
BBX 12 19 0 0
BITMAP
03f0
03f0
03f0
03f0
03f0
0000
0000
0000
0000
0000
0000
0000
0000
0000
0000
0000
0000
0000
0000
ENDCHAR
STARTCHAR graphic12
ENCODING 44
SWIDTH 720 0
DWIDTH 12 0
BBX 12 19 0 0
BITMAP
fff0
fff0
fff0
fff0
fff0
0000
0000
0000
0000
0000
0000
0000
0000
0000
0000
0000
0000
0000
0000
ENDCHAR
STARTCHAR graphic13
ENCODING 45
SWIDTH 720 0
DWIDTH 12 0
BBX 12 19 0 0
BITMAP
fff0
fff0
fff0
fff0
fff0
0000
0000
0000
0000
0000
0000
0000
0000
0000
0000
0000
0000
0000
0000
ENDCHAR
STARTCHAR graphic14
ENCODING 46
SWIDTH 720 0
DWIDTH 12 0
BBX 12 19 0 0
BITMAP
fff0
fff0
fff0
fff0
fff0
0000
0000
0000
0000
0000
0000
0000
0000
0000
0000
0000
0000
0000
0000
ENDCHAR
STARTCHAR graphic15
ENCODING 47
SWIDTH 720 0
DWIDTH 12 0
BBX 12 19 0 0
BITMAP
fff0
fff0
fff0
fff0
fff0
0000
0000
0000
0000
0000
0000
0000
0000
0000
0000
0000
0000
0000
0000
ENDCHAR
STARTCHAR graphic16
ENCODING 48
SWIDTH 720 0
DWIDTH 12 0
BBX 12 19 0 0
BITMAP
0000
0000
0000
0000
0000
fc00
fc00
fc00
fc00
fc00
fc00
fc00
fc00
fc00
fc00
fc00
fc00
fc00
fc00
ENDCHAR
STARTCHAR graphic17
ENCODING 49
SWIDTH 720 0
DWIDTH 12 0
BBX 12 19 0 0
BITMAP
0000
0000
0000
0000
0000
fc00
fc00
fc00
fc00
fc00
fc00
fc00
fc00
fc00
fc00
fc00
fc00
fc00
fc00
ENDCHAR
STARTCHAR graphic18
ENCODING 50
SWIDTH 720 0
DWIDTH 12 0
BBX 12 19 0 0
BITMAP
0000
0000
0000
0000
0000
fc00
fc00
fc00
fc00
fc00
fc00
fc00
fc00
fc00
fc00
fc00
fc00
fc00
fc00
ENDCHAR
STARTCHAR graphic19
ENCODING 51
SWIDTH 720 0
DWIDTH 12 0
BBX 12 19 0 0
BITMAP
0000
0000
0000
0000
0000
fc00
fc00
fc00
fc00
fc00
fc00
fc00
fc00
fc00
fc00
fc00
fc00
fc00
fc00
ENDCHAR
STARTCHAR graphic20
ENCODING 52
SWIDTH 720 0
DWIDTH 12 0
BBX 12 19 0 0
BITMAP
fc00
fc00
fc00
fc00
fc00
fc00
fc00
fc00
fc00
fc00
fc00
fc00
fc00
fc00
fc00
fc00
fc00
fc00
fc00
ENDCHAR
STARTCHAR graphic21
ENCODING 53
SWIDTH 720 0
DWIDTH 12 0
BBX 12 19 0 0
BITMAP
fc00
fc00
fc00
fc00
fc00
fc00
fc00
fc00
fc00
fc00
fc00
fc00
fc00
fc00
fc00
fc00
fc00
fc00
fc00
ENDCHAR
STARTCHAR graphic22
ENCODING 54
SWIDTH 720 0
DWIDTH 12 0
BBX 12 19 0 0
BITMAP
fc00
fc00
fc00
fc00
fc00
fc00
fc00
fc00
fc00
fc00
fc00
fc00
fc00
fc00
fc00
fc00
fc00
fc00
fc00
ENDCHAR
STARTCHAR graphic23
ENCODING 55
SWIDTH 720 0
DWIDTH 12 0
BBX 12 19 0 0
BITMAP
fc00
fc00
fc00
fc00
fc00
fc00
fc00
fc00
fc00
fc00
fc00
fc00
fc00
fc00
fc00
fc00
fc00
fc00
fc00
ENDCHAR
STARTCHAR graphic24
ENCODING 56
SWIDTH 720 0
DWIDTH 12 0
BBX 12 19 0 0
BITMAP
03f0
03f0
03f0
03f0
03f0
fc00
fc00
fc00
fc00
fc00
fc00
fc00
fc00
fc00
fc00
fc00
fc00
fc00
fc00
ENDCHAR
STARTCHAR graphic25
ENCODING 57
SWIDTH 720 0
DWIDTH 12 0
BBX 12 19 0 0
BITMAP
03f0
03f0
03f0
03f0
03f0
fc00
fc00
fc00
fc00
fc00
fc00
fc00
fc00
fc00
fc00
fc00
fc00
fc00
fc00
ENDCHAR
STARTCHAR graphic26
ENCODING 58
SWIDTH 720 0
DWIDTH 12 0
BBX 12 19 0 0
BITMAP
03f0
03f0
03f0
03f0
03f0
fc00
fc00
fc00
fc00
fc00
fc00
fc00
fc00
fc00
fc00
fc00
fc00
fc00
fc00
ENDCHAR
STARTCHAR graphic27
ENCODING 59
SWIDTH 720 0
DWIDTH 12 0
BBX 12 19 0 0
BITMAP
03f0
03f0
03f0
03f0
03f0
fc00
fc00
fc00
fc00
fc00
fc00
fc00
fc00
fc00
fc00
fc00
fc00
fc00
fc00
ENDCHAR
STARTCHAR graphic28
ENCODING 60
SWIDTH 720 0
DWIDTH 12 0
BBX 12 19 0 0
BITMAP
fff0
fff0
fff0
fff0
fff0
fc00
fc00
fc00
fc00
fc00
fc00
fc00
fc00
fc00
fc00
fc00
fc00
fc00
fc00
ENDCHAR
STARTCHAR graphic29
ENCODING 61
SWIDTH 720 0
DWIDTH 12 0
BBX 12 19 0 0
BITMAP
fff0
fff0
fff0
fff0
fff0
fc00
fc00
fc00
fc00
fc00
fc00
fc00
fc00
fc00
fc00
fc00
fc00
fc00
fc00
ENDCHAR
STARTCHAR graphic30
ENCODING 62
SWIDTH 720 0
DWIDTH 12 0
BBX 12 19 0 0
BITMAP
fff0
fff0
fff0
fff0
fff0
fc00
fc00
fc00
fc00
fc00
fc00
fc00
fc00
fc00
fc00
fc00
fc00
fc00
fc00
ENDCHAR
STARTCHAR graphic31
ENCODING 63
SWIDTH 720 0
DWIDTH 12 0
BBX 12 19 0 0
BITMAP
fff0
fff0
fff0
fff0
fff0
fc00
fc00
fc00
fc00
fc00
fc00
fc00
fc00
fc00
fc00
fc00
fc00
fc00
fc00
ENDCHAR
STARTCHAR at
ENCODING 64
SWIDTH 720 0
DWIDTH 12 0
BBX 12 19 0 0
BITMAP
31e0
3000
3000
3800
3800
1fc0
1fc0
0fc0
07c0
0000
0000
0000
0000
0000
0000
0000
0000
0000
0000
ENDCHAR
STARTCHAR A
ENCODING 65
SWIDTH 720 0
DWIDTH 12 0
BBX 12 19 0 0
BITMAP
3ff0
3030
3030
3030
3030
3030
3030
3030
3030
0000
0000
0000
0000
0000
0000
0000
0000
0000
0000
ENDCHAR
STARTCHAR B
ENCODING 66
SWIDTH 720 0
DWIDTH 12 0
BBX 12 19 0 0
BITMAP
3030
3030
3030
3070
3070
3fe0
3fe0
3fc0
3f80
0000
0000
0000
0000
0000
0000
0000
0000
0000
0000
ENDCHAR
STARTCHAR C
ENCODING 67
SWIDTH 720 0
DWIDTH 12 0
BBX 12 19 0 0
BITMAP
3000
3030
3030
3870
3870
1fe0
1fe0
0fc0
0780
0000
0000
0000
0000
0000
0000
0000
0000
0000
0000
ENDCHAR
STARTCHAR D
ENCODING 68
SWIDTH 720 0
DWIDTH 12 0
BBX 13 19 0 0
BITMAP
3030
3030
3030
3070
3070
3fe0
3fe0
3fc0
3f80
0000
0000
0000
0000
0000
0000
0000
0000
0000
0000
ENDCHAR
STARTCHAR E
ENCODING 69
SWIDTH 720 0
DWIDTH 12 0
BBX 13 19 0 0
BITMAP
3000
3000
3000
3000
3000
3ff0
3ff0
3ff0
3ff0
0000
0000
0000
0000
0000
0000
0000
0000
0000
0000
ENDCHAR
STARTCHAR F
ENCODING 70
SWIDTH 720 0
DWIDTH 12 0
BBX 12 19 0 0
BITMAP
3000
3000
3000
3000
3000
3000
3000
3000
3000
0000
0000
0000
0000
0000
0000
0000
0000
0000
0000
ENDCHAR
STARTCHAR G
ENCODING 71
SWIDTH 720 0
DWIDTH 12 0
BBX 12 19 0 0
BITMAP
30f0
3030
3030
3830
3830
1ff0
1ff0
0ff0
07f0
0000
0000
0000
0000
0000
0000
0000
0000
0000
0000
ENDCHAR
STARTCHAR H
ENCODING 72
SWIDTH 720 0
DWIDTH 12 0
BBX 12 19 0 0
BITMAP
3030
3030
3030
3030
3030
3030
3030
3030
3030
0000
0000
0000
0000
0000
0000
0000
0000
0000
0000
ENDCHAR
STARTCHAR I
ENCODING 73
SWIDTH 720 0
DWIDTH 12 0
BBX 12 19 0 0
BITMAP
0300
0300
0300
0300
0300
0fc0
0fc0
0fc0
0fc0
0000
0000
0000
0000
0000
0000
0000
0000
0000
0000
ENDCHAR
STARTCHAR J
ENCODING 74
SWIDTH 720 0
DWIDTH 12 0
BBX 12 19 0 0
BITMAP
0030
3030
3030
3870
3870
1fe0
1fe0
0fc0
0780
0000
0000
0000
0000
0000
0000
0000
0000
0000
0000
ENDCHAR
STARTCHAR K
ENCODING 75
SWIDTH 720 0
DWIDTH 12 0
BBX 12 19 0 0
BITMAP
3380
31c0
31c0
30e0
30e0
3070
3070
3030
3030
0000
0000
0000
0000
0000
0000
0000
0000
0000
0000
ENDCHAR
STARTCHAR L
ENCODING 76
SWIDTH 720 0
DWIDTH 12 0
BBX 12 19 0 0
BITMAP
3000
3000
3000
3000
3000
3ff0
3ff0
3ff0
3ff0
0000
0000
0000
0000
0000
0000
0000
0000
0000
0000
ENDCHAR
STARTCHAR M
ENCODING 77
SWIDTH 720 0
DWIDTH 12 0
BBX 12 19 0 0
BITMAP
3030
3030
3030
3030
3030
3030
3030
3030
3030
0000
0000
0000
0000
0000
0000
0000
0000
0000
0000
ENDCHAR
STARTCHAR N
ENCODING 78
SWIDTH 720 0
DWIDTH 12 0
BBX 12 19 0 0
BITMAP
30f0
3070
3070
3030
3030
3030
3030
3030
3030
0000
0000
0000
0000
0000
0000
0000
0000
0000
0000
ENDCHAR
STARTCHAR O
ENCODING 79
SWIDTH 720 0
DWIDTH 12 0
BBX 13 19 0 0
BITMAP
3030
3030
3030
3870
3870
1fe0
1fe0
0fc0
0780
0000
0000
0000
0000
0000
0000
0000
0000
0000
0000
ENDCHAR
STARTCHAR P
ENCODING 80
SWIDTH 720 0
DWIDTH 12 0
BBX 12 19 0 0
BITMAP
3000
3000
3000
3000
3000
3000
3000
3000
3000
0000
0000
0000
0000
0000
0000
0000
0000
0000
0000
ENDCHAR
STARTCHAR Q
ENCODING 81
SWIDTH 720 0
DWIDTH 12 0
BBX 12 19 0 0
BITMAP
33b0
31c0
31c0
38e0
38e0
1f70
1f70
0fb0
0f30
0000
0000
0000
0000
0000
0000
0000
0000
0000
0000
ENDCHAR
STARTCHAR R
ENCODING 82
SWIDTH 720 0
DWIDTH 12 0
BBX 12 19 0 0
BITMAP
3380
31c0
31c0
30e0
30e0
3070
3070
3030
3030
0000
0000
0000
0000
0000
0000
0000
0000
0000
0000
ENDCHAR
STARTCHAR S
ENCODING 83
SWIDTH 720 0
DWIDTH 12 0
BBX 14 19 0 0
BITMAP
0030
3030
3030
3870
3870
1fe0
1fe0
0fc0
0780
0000
0000
0000
0000
0000
0000
0000
0000
0000
0000
ENDCHAR
STARTCHAR T
ENCODING 84
SWIDTH 720 0
DWIDTH 12 0
BBX 12 19 0 0
BITMAP
0300
0300
0300
0300
0300
0300
0300
0300
0300
0000
0000
0000
0000
0000
0000
0000
0000
0000
0000
ENDCHAR
STARTCHAR U
ENCODING 85
SWIDTH 720 0
DWIDTH 12 0
BBX 12 19 0 0
BITMAP
3030
3030
3030
3870
3870
1fe0
1fe0
0fc0
0780
0000
0000
0000
0000
0000
0000
0000
0000
0000
0000
ENDCHAR
STARTCHAR V
ENCODING 86
SWIDTH 720 0
DWIDTH 12 0
BBX 12 19 0 0
BITMAP
0fc0
0780
0780
0300
0300
0300
0300
0300
0300
0000
0000
0000
0000
0000
0000
0000
0000
0000
0000
ENDCHAR
STARTCHAR W
ENCODING 87
SWIDTH 720 0
DWIDTH 12 0
BBX 13 19 0 0
BITMAP
3330
3330
3330
3ff0
3ff0
1fe0
1fe0
0cc0
0cc0
0000
0000
0000
0000
0000
0000
0000
0000
0000
0000
ENDCHAR
STARTCHAR X
ENCODING 88
SWIDTH 720 0
DWIDTH 12 0
BBX 14 19 0 0
BITMAP
1ce0
3870
3870
3030
3030
3030
3030
3030
3030
0000
0000
0000
0000
0000
0000
0000
0000
0000
0000
ENDCHAR
STARTCHAR Y
ENCODING 89
SWIDTH 720 0
DWIDTH 12 0
BBX 12 19 0 0
BITMAP
0300
0300
0300
0300
0300
0300
0300
0300
0300
0000
0000
0000
0000
0000
0000
0000
0000
0000
0000
ENDCHAR
STARTCHAR Z
ENCODING 90
SWIDTH 720 0
DWIDTH 12 0
BBX 12 19 0 0
BITMAP
1c00
3800
3800
3000
3000
3ff0
3ff0
3ff0
3ff0
0000
0000
0000
0000
0000
0000
0000
0000
0000
0000
ENDCHAR
STARTCHAR bracketleft
ENCODING 91
SWIDTH 720 0
DWIDTH 12 0
BBX 12 19 0 0
BITMAP
0e00
0700
0700
0300
0300
0000
0000
0000
0000
0000
0000
0000
0000
0000
0000
0000
0000
0000
0000
ENDCHAR
STARTCHAR backslash
ENCODING 92
SWIDTH 720 0
DWIDTH 12 0
BBX 12 19 0 0
BITMAP
33e0
0070
0070
0070
0070
00e0
00e0
01c0
01c0
0380
0380
0300
0300
03f0
03f0
03f0
03f0
0000
0000
ENDCHAR
STARTCHAR bracketright
ENCODING 93
SWIDTH 720 0
DWIDTH 12 0
BBX 13 19 0 0
BITMAP
01c0
0380
0380
0300
0300
0000
0000
0000
0000
0000
0000
0000
0000
0000
0000
0000
0000
0000
0000
ENDCHAR
STARTCHAR asciicircum
ENCODING 94
SWIDTH 720 0
DWIDTH 12 0
BBX 12 19 0 0
BITMAP
0300
0300
0300
0300
0300
0000
0000
0000
0000
0000
0000
0000
0000
0000
0000
0000
0000
0000
0000
ENDCHAR
STARTCHAR graphic32
ENCODING 96
SWIDTH 720 0
DWIDTH 12 0
BBX 12 19 0 0
BITMAP
0000
0000
0000
0000
0000
03f0
03f0
03f0
03f0
03f0
03f0
03f0
03f0
03f0
03f0
03f0
03f0
03f0
03f0
ENDCHAR
STARTCHAR graphic03
ENCODING 35
SWIDTH 720 0
DWIDTH 12 0
BBX 12 19 0 0
BITMAP
0000
0000
0000
0000
0000
0000
0000
0000
0000
0000
0000
0000
0000
0000
0000
0000
0000
0000
0000
ENDCHAR
STARTCHAR graphic33
ENCODING 97
SWIDTH 720 0
DWIDTH 12 0
BBX 12 19 0 0
BITMAP
0000
0000
0000
0000
0000
03f0
03f0
03f0
03f0
03f0
03f0
03f0
03f0
03f0
03f0
03f0
03f0
03f0
03f0
ENDCHAR
STARTCHAR graphic34
ENCODING 98
SWIDTH 720 0
DWIDTH 12 0
BBX 12 19 0 0
BITMAP
0000
0000
0000
0000
0000
03f0
03f0
03f0
03f0
03f0
03f0
03f0
03f0
03f0
03f0
03f0
03f0
03f0
03f0
ENDCHAR
STARTCHAR graphic35
ENCODING 99
SWIDTH 720 0
DWIDTH 12 0
BBX 12 19 0 0
BITMAP
0000
0000
0000
0000
0000
03f0
03f0
03f0
03f0
03f0
03f0
03f0
03f0
03f0
03f0
03f0
03f0
03f0
03f0
ENDCHAR
STARTCHAR graphic36
ENCODING 100
SWIDTH 720 0
DWIDTH 12 0
BBX 12 19 0 0
BITMAP
fc00
fc00
fc00
fc00
fc00
03f0
03f0
03f0
03f0
03f0
03f0
03f0
03f0
03f0
03f0
03f0
03f0
03f0
03f0
ENDCHAR
STARTCHAR graphic37
ENCODING 101
SWIDTH 720 0
DWIDTH 12 0
BBX 12 19 0 0
BITMAP
fc00
fc00
fc00
fc00
fc00
03f0
03f0
03f0
03f0
03f0
03f0
03f0
03f0
03f0
03f0
03f0
03f0
03f0
03f0
ENDCHAR
STARTCHAR graphic38
ENCODING 102
SWIDTH 720 0
DWIDTH 12 0
BBX 12 19 0 0
BITMAP
fc00
fc00
fc00
fc00
fc00
03f0
03f0
03f0
03f0
03f0
03f0
03f0
03f0
03f0
03f0
03f0
03f0
03f0
03f0
ENDCHAR
STARTCHAR graphic39
ENCODING 103
SWIDTH 720 0
DWIDTH 12 0
BBX 12 19 0 0
BITMAP
fc00
fc00
fc00
fc00
fc00
03f0
03f0
03f0
03f0
03f0
03f0
03f0
03f0
03f0
03f0
03f0
03f0
03f0
03f0
ENDCHAR
STARTCHAR graphic40
ENCODING 104
SWIDTH 720 0
DWIDTH 12 0
BBX 12 19 0 0
BITMAP
03f0
03f0
03f0
03f0
03f0
03f0
03f0
03f0
03f0
03f0
03f0
03f0
03f0
03f0
03f0
03f0
03f0
03f0
03f0
ENDCHAR
STARTCHAR graphic41
ENCODING 105
SWIDTH 720 0
DWIDTH 12 0
BBX 12 19 0 0
BITMAP
03f0
03f0
03f0
03f0
03f0
03f0
03f0
03f0
03f0
03f0
03f0
03f0
03f0
03f0
03f0
03f0
03f0
03f0
03f0
ENDCHAR
STARTCHAR graphic42
ENCODING 106
SWIDTH 720 0
DWIDTH 12 0
BBX 12 19 0 0
BITMAP
03f0
03f0
03f0
03f0
03f0
03f0
03f0
03f0
03f0
03f0
03f0
03f0
03f0
03f0
03f0
03f0
03f0
03f0
03f0
ENDCHAR
STARTCHAR graphic43
ENCODING 107
SWIDTH 720 0
DWIDTH 12 0
BBX 12 19 0 0
BITMAP
03f0
03f0
03f0
03f0
03f0
03f0
03f0
03f0
03f0
03f0
03f0
03f0
03f0
03f0
03f0
03f0
03f0
03f0
03f0
ENDCHAR
STARTCHAR graphic44
ENCODING 108
SWIDTH 720 0
DWIDTH 12 0
BBX 12 19 0 0
BITMAP
fff0
fff0
fff0
fff0
fff0
03f0
03f0
03f0
03f0
03f0
03f0
03f0
03f0
03f0
03f0
03f0
03f0
03f0
03f0
ENDCHAR
STARTCHAR graphic45
ENCODING 109
SWIDTH 720 0
DWIDTH 12 0
BBX 12 19 0 0
BITMAP
fff0
fff0
fff0
fff0
fff0
03f0
03f0
03f0
03f0
03f0
03f0
03f0
03f0
03f0
03f0
03f0
03f0
03f0
03f0
ENDCHAR
STARTCHAR graphic46
ENCODING 110
SWIDTH 720 0
DWIDTH 12 0
BBX 12 19 0 0
BITMAP
fff0
fff0
fff0
fff0
fff0
03f0
03f0
03f0
03f0
03f0
03f0
03f0
03f0
03f0
03f0
03f0
03f0
03f0
03f0
ENDCHAR
STARTCHAR graphic47
ENCODING 111
SWIDTH 720 0
DWIDTH 12 0
BBX 12 19 0 0
BITMAP
fff0
fff0
fff0
fff0
fff0
03f0
03f0
03f0
03f0
03f0
03f0
03f0
03f0
03f0
03f0
03f0
03f0
03f0
03f0
ENDCHAR
STARTCHAR graphic48
ENCODING 112
SWIDTH 720 0
DWIDTH 12 0
BBX 12 19 0 0
BITMAP
0000
0000
0000
0000
0000
fff0
fff0
fff0
fff0
fff0
fff0
fff0
fff0
fff0
fff0
fff0
fff0
fff0
fff0
ENDCHAR
STARTCHAR graphic49
ENCODING 113
SWIDTH 720 0
DWIDTH 12 0
BBX 12 19 0 0
BITMAP
0000
0000
0000
0000
0000
fff0
fff0
fff0
fff0
fff0
fff0
fff0
fff0
fff0
fff0
fff0
fff0
fff0
fff0
ENDCHAR
STARTCHAR graphic50
ENCODING 114
SWIDTH 720 0
DWIDTH 12 0
BBX 12 19 0 0
BITMAP
0000
0000
0000
0000
0000
fff0
fff0
fff0
fff0
fff0
fff0
fff0
fff0
fff0
fff0
fff0
fff0
fff0
fff0
ENDCHAR
STARTCHAR graphic51
ENCODING 115
SWIDTH 720 0
DWIDTH 12 0
BBX 12 19 0 0
BITMAP
0000
0000
0000
0000
0000
fff0
fff0
fff0
fff0
fff0
fff0
fff0
fff0
fff0
fff0
fff0
fff0
fff0
fff0
ENDCHAR
STARTCHAR graphic52
ENCODING 116
SWIDTH 720 0
DWIDTH 12 0
BBX 12 19 0 0
BITMAP
fc00
fc00
fc00
fc00
fc00
fff0
fff0
fff0
fff0
fff0
fff0
fff0
fff0
fff0
fff0
fff0
fff0
fff0
fff0
ENDCHAR
STARTCHAR graphic53
ENCODING 117
SWIDTH 720 0
DWIDTH 12 0
BBX 12 19 0 0
BITMAP
fc00
fc00
fc00
fc00
fc00
fff0
fff0
fff0
fff0
fff0
fff0
fff0
fff0
fff0
fff0
fff0
fff0
fff0
fff0
ENDCHAR
STARTCHAR graphic54
ENCODING 118
SWIDTH 720 0
DWIDTH 12 0
BBX 12 19 0 0
BITMAP
fc00
fc00
fc00
fc00
fc00
fff0
fff0
fff0
fff0
fff0
fff0
fff0
fff0
fff0
fff0
fff0
fff0
fff0
fff0
ENDCHAR
STARTCHAR graphic55
ENCODING 119
SWIDTH 720 0
DWIDTH 12 0
BBX 12 19 0 0
BITMAP
fc00
fc00
fc00
fc00
fc00
fff0
fff0
fff0
fff0
fff0
fff0
fff0
fff0
fff0
fff0
fff0
fff0
fff0
fff0
ENDCHAR
STARTCHAR graphic56
ENCODING 120
SWIDTH 720 0
DWIDTH 12 0
BBX 12 19 0 0
BITMAP
03f0
03f0
03f0
03f0
03f0
fff0
fff0
fff0
fff0
fff0
fff0
fff0
fff0
fff0
fff0
fff0
fff0
fff0
fff0
ENDCHAR
STARTCHAR graphic57
ENCODING 121
SWIDTH 720 0
DWIDTH 12 0
BBX 12 19 0 0
BITMAP
03f0
03f0
03f0
03f0
03f0
fff0
fff0
fff0
fff0
fff0
fff0
fff0
fff0
fff0
fff0
fff0
fff0
fff0
fff0
ENDCHAR
STARTCHAR graphic58
ENCODING 122
SWIDTH 720 0
DWIDTH 12 0
BBX 12 19 0 0
BITMAP
03f0
03f0
03f0
03f0
03f0
fff0
fff0
fff0
fff0
fff0
fff0
fff0
fff0
fff0
fff0
fff0
fff0
fff0
fff0
ENDCHAR
STARTCHAR graphic59
ENCODING 123
SWIDTH 720 0
DWIDTH 12 0
BBX 12 19 0 0
BITMAP
03f0
03f0
03f0
03f0
03f0
fff0
fff0
fff0
fff0
fff0
fff0
fff0
fff0
fff0
fff0
fff0
fff0
fff0
fff0
ENDCHAR
STARTCHAR graphic60
ENCODING 124
SWIDTH 720 0
DWIDTH 12 0
BBX 12 19 0 0
BITMAP
fff0
fff0
fff0
fff0
fff0
fff0
fff0
fff0
fff0
fff0
fff0
fff0
fff0
fff0
fff0
fff0
fff0
fff0
fff0
ENDCHAR
STARTCHAR graphic61
ENCODING 125
SWIDTH 720 0
DWIDTH 12 0
BBX 12 19 0 0
BITMAP
fff0
fff0
fff0
fff0
fff0
fff0
fff0
fff0
fff0
fff0
fff0
fff0
fff0
fff0
fff0
fff0
fff0
fff0
fff0
ENDCHAR
STARTCHAR graphic62
ENCODING 126
SWIDTH 720 0
DWIDTH 12 0
BBX 12 19 0 0
BITMAP
fff0
fff0
fff0
fff0
fff0
fff0
fff0
fff0
fff0
fff0
fff0
fff0
fff0
fff0
fff0
fff0
fff0
fff0
fff0
ENDCHAR
STARTCHAR graphic63
ENCODING 127
SWIDTH 720 0
DWIDTH 12 0
BBX 12 19 0 0
BITMAP
fff0
fff0
fff0
fff0
fff0
fff0
fff0
fff0
fff0
fff0
fff0
fff0
fff0
fff0
fff0
fff0
fff0
fff0
fff0
ENDCHAR
STARTCHAR space
ENCODING 160
SWIDTH 720 0
DWIDTH 12 0
BBX 12 19 0 0
BITMAP
0000
0000
0000
0000
0000
0000
0000
0000
0000
0000
0000
0000
0000
0000
0000
0000
0000
0000
0000
ENDCHAR
STARTCHAR graphic01
ENCODING 161
SWIDTH 720 0
DWIDTH 12 0
BBX 12 19 0 0
BITMAP
0000
0000
0000
0000
0000
0000
0000
0000
0000
0000
0000
0000
0000
0000
0000
0000
0000
0000
0000
ENDCHAR
STARTCHAR graphic02
ENCODING 162
SWIDTH 720 0
DWIDTH 12 0
BBX 12 19 0 0
BITMAP
0000
0000
0000
0000
0000
0000
0000
0000
0000
0000
0000
0000
0000
0000
0000
0000
0000
0000
0000
ENDCHAR
STARTCHAR graphic03
ENCODING 163
SWIDTH 720 0
DWIDTH 12 0
BBX 12 19 0 0
BITMAP
0000
0000
0000
0000
0000
0000
0000
0000
0000
0000
0000
0000
0000
0000
0000
0000
0000
0000
0000
ENDCHAR
STARTCHAR graphic04
ENCODING 164
SWIDTH 720 0
DWIDTH 12 0
BBX 12 19 0 0
BITMAP
fc00
fc00
fc00
fc00
fc00
0000
0000
0000
0000
0000
0000
0000
0000
0000
0000
0000
0000
0000
0000
ENDCHAR
STARTCHAR graphic05
ENCODING 165
SWIDTH 720 0
DWIDTH 12 0
BBX 12 19 0 0
BITMAP
fc00
fc00
fc00
fc00
fc00
0000
0000
0000
0000
0000
0000
0000
0000
0000
0000
0000
0000
0000
0000
ENDCHAR
STARTCHAR graphic06
ENCODING 166
SWIDTH 720 0
DWIDTH 12 0
BBX 12 19 0 0
BITMAP
fc00
fc00
fc00
fc00
fc00
0000
0000
0000
0000
0000
0000
0000
0000
0000
0000
0000
0000
0000
0000
ENDCHAR
STARTCHAR graphic07
ENCODING 167
SWIDTH 720 0
DWIDTH 12 0
BBX 12 19 0 0
BITMAP
fc00
fc00
fc00
fc00
fc00
0000
0000
0000
0000
0000
0000
0000
0000
0000
0000
0000
0000
0000
0000
ENDCHAR
STARTCHAR graphic08
ENCODING 168
SWIDTH 720 0
DWIDTH 12 0
BBX 12 19 0 0
BITMAP
03f0
03f0
03f0
03f0
03f0
0000
0000
0000
0000
0000
0000
0000
0000
0000
0000
0000
0000
0000
0000
ENDCHAR
STARTCHAR graphic09
ENCODING 169
SWIDTH 720 0
DWIDTH 12 0
BBX 12 19 0 0
BITMAP
03f0
03f0
03f0
03f0
03f0
0000
0000
0000
0000
0000
0000
0000
0000
0000
0000
0000
0000
0000
0000
ENDCHAR
STARTCHAR graphic10
ENCODING 170
SWIDTH 720 0
DWIDTH 12 0
BBX 12 19 0 0
BITMAP
03f0
03f0
03f0
03f0
03f0
0000
0000
0000
0000
0000
0000
0000
0000
0000
0000
0000
0000
0000
0000
ENDCHAR
STARTCHAR graphic11
ENCODING 171
SWIDTH 720 0
DWIDTH 12 0
BBX 12 19 0 0
BITMAP
03f0
03f0
03f0
03f0
03f0
0000
0000
0000
0000
0000
0000
0000
0000
0000
0000
0000
0000
0000
0000
ENDCHAR
STARTCHAR graphic12
ENCODING 172
SWIDTH 720 0
DWIDTH 12 0
BBX 12 19 0 0
BITMAP
fff0
fff0
fff0
fff0
fff0
0000
0000
0000
0000
0000
0000
0000
0000
0000
0000
0000
0000
0000
0000
ENDCHAR
STARTCHAR graphic13
ENCODING 173
SWIDTH 720 0
DWIDTH 12 0
BBX 12 19 0 0
BITMAP
fff0
fff0
fff0
fff0
fff0
0000
0000
0000
0000
0000
0000
0000
0000
0000
0000
0000
0000
0000
0000
ENDCHAR
STARTCHAR graphic14
ENCODING 174
SWIDTH 720 0
DWIDTH 12 0
BBX 12 19 0 0
BITMAP
fff0
fff0
fff0
fff0
fff0
0000
0000
0000
0000
0000
0000
0000
0000
0000
0000
0000
0000
0000
0000
ENDCHAR
STARTCHAR graphic15
ENCODING 175
SWIDTH 720 0
DWIDTH 12 0
BBX 12 19 0 0
BITMAP
fff0
fff0
fff0
fff0
fff0
0000
0000
0000
0000
0000
0000
0000
0000
0000
0000
0000
0000
0000
0000
ENDCHAR
STARTCHAR graphic16
ENCODING 176
SWIDTH 720 0
DWIDTH 12 0
BBX 12 19 0 0
BITMAP
0000
0000
0000
0000
0000
fc00
fc00
fc00
fc00
fc00
fc00
fc00
fc00
fc00
fc00
fc00
fc00
fc00
fc00
ENDCHAR
STARTCHAR graphic17
ENCODING 177
SWIDTH 720 0
DWIDTH 12 0
BBX 12 19 0 0
BITMAP
0000
0000
0000
0000
0000
fc00
fc00
fc00
fc00
fc00
fc00
fc00
fc00
fc00
fc00
fc00
fc00
fc00
fc00
ENDCHAR
STARTCHAR graphic18
ENCODING 178
SWIDTH 720 0
DWIDTH 12 0
BBX 12 19 0 0
BITMAP
0000
0000
0000
0000
0000
fc00
fc00
fc00
fc00
fc00
fc00
fc00
fc00
fc00
fc00
fc00
fc00
fc00
fc00
ENDCHAR
STARTCHAR graphic19
ENCODING 179
SWIDTH 720 0
DWIDTH 12 0
BBX 12 19 0 0
BITMAP
0000
0000
0000
0000
0000
fc00
fc00
fc00
fc00
fc00
fc00
fc00
fc00
fc00
fc00
fc00
fc00
fc00
fc00
ENDCHAR
STARTCHAR graphic20
ENCODING 180
SWIDTH 720 0
DWIDTH 12 0
BBX 12 19 0 0
BITMAP
fc00
fc00
fc00
fc00
fc00
fc00
fc00
fc00
fc00
fc00
fc00
fc00
fc00
fc00
fc00
fc00
fc00
fc00
fc00
ENDCHAR
STARTCHAR graphic21
ENCODING 181
SWIDTH 720 0
DWIDTH 12 0
BBX 12 19 0 0
BITMAP
fc00
fc00
fc00
fc00
fc00
fc00
fc00
fc00
fc00
fc00
fc00
fc00
fc00
fc00
fc00
fc00
fc00
fc00
fc00
ENDCHAR
STARTCHAR graphic22
ENCODING 182
SWIDTH 720 0
DWIDTH 12 0
BBX 12 19 0 0
BITMAP
fc00
fc00
fc00
fc00
fc00
fc00
fc00
fc00
fc00
fc00
fc00
fc00
fc00
fc00
fc00
fc00
fc00
fc00
fc00
ENDCHAR
STARTCHAR graphic23
ENCODING 183
SWIDTH 720 0
DWIDTH 12 0
BBX 12 19 0 0
BITMAP
fc00
fc00
fc00
fc00
fc00
fc00
fc00
fc00
fc00
fc00
fc00
fc00
fc00
fc00
fc00
fc00
fc00
fc00
fc00
ENDCHAR
STARTCHAR graphic24
ENCODING 184
SWIDTH 720 0
DWIDTH 12 0
BBX 12 19 0 0
BITMAP
03f0
03f0
03f0
03f0
03f0
fc00
fc00
fc00
fc00
fc00
fc00
fc00
fc00
fc00
fc00
fc00
fc00
fc00
fc00
ENDCHAR
STARTCHAR graphic25
ENCODING 185
SWIDTH 720 0
DWIDTH 12 0
BBX 12 19 0 0
BITMAP
03f0
03f0
03f0
03f0
03f0
fc00
fc00
fc00
fc00
fc00
fc00
fc00
fc00
fc00
fc00
fc00
fc00
fc00
fc00
ENDCHAR
STARTCHAR graphic26
ENCODING 186
SWIDTH 720 0
DWIDTH 12 0
BBX 12 19 0 0
BITMAP
03f0
03f0
03f0
03f0
03f0
fc00
fc00
fc00
fc00
fc00
fc00
fc00
fc00
fc00
fc00
fc00
fc00
fc00
fc00
ENDCHAR
STARTCHAR graphic27
ENCODING 187
SWIDTH 720 0
DWIDTH 12 0
BBX 12 19 0 0
BITMAP
03f0
03f0
03f0
03f0
03f0
fc00
fc00
fc00
fc00
fc00
fc00
fc00
fc00
fc00
fc00
fc00
fc00
fc00
fc00
ENDCHAR
STARTCHAR graphic28
ENCODING 188
SWIDTH 720 0
DWIDTH 12 0
BBX 12 19 0 0
BITMAP
fff0
fff0
fff0
fff0
fff0
fc00
fc00
fc00
fc00
fc00
fc00
fc00
fc00
fc00
fc00
fc00
fc00
fc00
fc00
ENDCHAR
STARTCHAR graphic29
ENCODING 189
SWIDTH 720 0
DWIDTH 12 0
BBX 12 19 0 0
BITMAP
fff0
fff0
fff0
fff0
fff0
fc00
fc00
fc00
fc00
fc00
fc00
fc00
fc00
fc00
fc00
fc00
fc00
fc00
fc00
ENDCHAR
STARTCHAR graphic30
ENCODING 190
SWIDTH 720 0
DWIDTH 12 0
BBX 12 19 0 0
BITMAP
fff0
fff0
fff0
fff0
fff0
fc00
fc00
fc00
fc00
fc00
fc00
fc00
fc00
fc00
fc00
fc00
fc00
fc00
fc00
ENDCHAR
STARTCHAR graphic31
ENCODING 191
SWIDTH 720 0
DWIDTH 12 0
BBX 12 19 0 0
BITMAP
fff0
fff0
fff0
fff0
fff0
fc00
fc00
fc00
fc00
fc00
fc00
fc00
fc00
fc00
fc00
fc00
fc00
fc00
fc00
ENDCHAR
STARTCHAR at
ENCODING 192
SWIDTH 720 0
DWIDTH 12 0
BBX 12 19 0 0
BITMAP
31e0
3000
3000
3800
3800
1fc0
1fc0
0fc0
07c0
0000
0000
0000
0000
0000
0000
0000
0000
0000
0000
ENDCHAR
STARTCHAR A
ENCODING 193
SWIDTH 720 0
DWIDTH 12 0
BBX 12 19 0 0
BITMAP
3ff0
3030
3030
3030
3030
3030
3030
3030
3030
0000
0000
0000
0000
0000
0000
0000
0000
0000
0000
ENDCHAR
STARTCHAR B
ENCODING 194
SWIDTH 720 0
DWIDTH 12 0
BBX 12 19 0 0
BITMAP
3030
3030
3030
3070
3070
3fe0
3fe0
3fc0
3f80
0000
0000
0000
0000
0000
0000
0000
0000
0000
0000
ENDCHAR
STARTCHAR C
ENCODING 195
SWIDTH 720 0
DWIDTH 12 0
BBX 12 19 0 0
BITMAP
3000
3030
3030
3870
3870
1fe0
1fe0
0fc0
0780
0000
0000
0000
0000
0000
0000
0000
0000
0000
0000
ENDCHAR
STARTCHAR D
ENCODING 196
SWIDTH 720 0
DWIDTH 12 0
BBX 13 19 0 0
BITMAP
3030
3030
3030
3070
3070
3fe0
3fe0
3fc0
3f80
0000
0000
0000
0000
0000
0000
0000
0000
0000
0000
ENDCHAR
STARTCHAR E
ENCODING 197
SWIDTH 720 0
DWIDTH 12 0
BBX 13 19 0 0
BITMAP
3000
3000
3000
3000
3000
3ff0
3ff0
3ff0
3ff0
0000
0000
0000
0000
0000
0000
0000
0000
0000
0000
ENDCHAR
STARTCHAR F
ENCODING 198
SWIDTH 720 0
DWIDTH 12 0
BBX 12 19 0 0
BITMAP
3000
3000
3000
3000
3000
3000
3000
3000
3000
0000
0000
0000
0000
0000
0000
0000
0000
0000
0000
ENDCHAR
STARTCHAR G
ENCODING 199
SWIDTH 720 0
DWIDTH 12 0
BBX 12 19 0 0
BITMAP
30f0
3030
3030
3830
3830
1ff0
1ff0
0ff0
07f0
0000
0000
0000
0000
0000
0000
0000
0000
0000
0000
ENDCHAR
STARTCHAR H
ENCODING 200
SWIDTH 720 0
DWIDTH 12 0
BBX 12 19 0 0
BITMAP
3030
3030
3030
3030
3030
3030
3030
3030
3030
0000
0000
0000
0000
0000
0000
0000
0000
0000
0000
ENDCHAR
STARTCHAR I
ENCODING 201
SWIDTH 720 0
DWIDTH 12 0
BBX 12 19 0 0
BITMAP
0300
0300
0300
0300
0300
0fc0
0fc0
0fc0
0fc0
0000
0000
0000
0000
0000
0000
0000
0000
0000
0000
ENDCHAR
STARTCHAR J
ENCODING 202
SWIDTH 720 0
DWIDTH 12 0
BBX 12 19 0 0
BITMAP
0030
3030
3030
3870
3870
1fe0
1fe0
0fc0
0780
0000
0000
0000
0000
0000
0000
0000
0000
0000
0000
ENDCHAR
STARTCHAR K
ENCODING 203
SWIDTH 720 0
DWIDTH 12 0
BBX 12 19 0 0
BITMAP
3380
31c0
31c0
30e0
30e0
3070
3070
3030
3030
0000
0000
0000
0000
0000
0000
0000
0000
0000
0000
ENDCHAR
STARTCHAR L
ENCODING 204
SWIDTH 720 0
DWIDTH 12 0
BBX 12 19 0 0
BITMAP
3000
3000
3000
3000
3000
3ff0
3ff0
3ff0
3ff0
0000
0000
0000
0000
0000
0000
0000
0000
0000
0000
ENDCHAR
STARTCHAR M
ENCODING 205
SWIDTH 720 0
DWIDTH 12 0
BBX 12 19 0 0
BITMAP
3030
3030
3030
3030
3030
3030
3030
3030
3030
0000
0000
0000
0000
0000
0000
0000
0000
0000
0000
ENDCHAR
STARTCHAR N
ENCODING 206
SWIDTH 720 0
DWIDTH 12 0
BBX 12 19 0 0
BITMAP
30f0
3070
3070
3030
3030
3030
3030
3030
3030
0000
0000
0000
0000
0000
0000
0000
0000
0000
0000
ENDCHAR
STARTCHAR O
ENCODING 207
SWIDTH 720 0
DWIDTH 12 0
BBX 13 19 0 0
BITMAP
3030
3030
3030
3870
3870
1fe0
1fe0
0fc0
0780
0000
0000
0000
0000
0000
0000
0000
0000
0000
0000
ENDCHAR
STARTCHAR P
ENCODING 208
SWIDTH 720 0
DWIDTH 12 0
BBX 12 19 0 0
BITMAP
3000
3000
3000
3000
3000
3000
3000
3000
3000
0000
0000
0000
0000
0000
0000
0000
0000
0000
0000
ENDCHAR
STARTCHAR Q
ENCODING 209
SWIDTH 720 0
DWIDTH 12 0
BBX 12 19 0 0
BITMAP
33b0
31c0
31c0
38e0
38e0
1f70
1f70
0fb0
0f30
0000
0000
0000
0000
0000
0000
0000
0000
0000
0000
ENDCHAR
STARTCHAR R
ENCODING 210
SWIDTH 720 0
DWIDTH 12 0
BBX 12 19 0 0
BITMAP
3380
31c0
31c0
30e0
30e0
3070
3070
3030
3030
0000
0000
0000
0000
0000
0000
0000
0000
0000
0000
ENDCHAR
STARTCHAR S
ENCODING 211
SWIDTH 720 0
DWIDTH 12 0
BBX 14 19 0 0
BITMAP
0030
3030
3030
3870
3870
1fe0
1fe0
0fc0
0780
0000
0000
0000
0000
0000
0000
0000
0000
0000
0000
ENDCHAR
STARTCHAR T
ENCODING 212
SWIDTH 720 0
DWIDTH 12 0
BBX 12 19 0 0
BITMAP
0300
0300
0300
0300
0300
0300
0300
0300
0300
0000
0000
0000
0000
0000
0000
0000
0000
0000
0000
ENDCHAR
STARTCHAR U
ENCODING 213
SWIDTH 720 0
DWIDTH 12 0
BBX 12 19 0 0
BITMAP
3030
3030
3030
3870
3870
1fe0
1fe0
0fc0
0780
0000
0000
0000
0000
0000
0000
0000
0000
0000
0000
ENDCHAR
STARTCHAR V
ENCODING 214
SWIDTH 720 0
DWIDTH 12 0
BBX 12 19 0 0
BITMAP
0fc0
0780
0780
0300
0300
0300
0300
0300
0300
0000
0000
0000
0000
0000
0000
0000
0000
0000
0000
ENDCHAR
STARTCHAR W
ENCODING 215
SWIDTH 720 0
DWIDTH 12 0
BBX 13 19 0 0
BITMAP
3330
3330
3330
3ff0
3ff0
1fe0
1fe0
0cc0
0cc0
0000
0000
0000
0000
0000
0000
0000
0000
0000
0000
ENDCHAR
STARTCHAR X
ENCODING 216
SWIDTH 720 0
DWIDTH 12 0
BBX 14 19 0 0
BITMAP
1ce0
3870
3870
3030
3030
3030
3030
3030
3030
0000
0000
0000
0000
0000
0000
0000
0000
0000
0000
ENDCHAR
STARTCHAR Y
ENCODING 217
SWIDTH 720 0
DWIDTH 12 0
BBX 12 19 0 0
BITMAP
0300
0300
0300
0300
0300
0300
0300
0300
0300
0000
0000
0000
0000
0000
0000
0000
0000
0000
0000
ENDCHAR
STARTCHAR Z
ENCODING 218
SWIDTH 720 0
DWIDTH 12 0
BBX 12 19 0 0
BITMAP
1c00
3800
3800
3000
3000
3ff0
3ff0
3ff0
3ff0
0000
0000
0000
0000
0000
0000
0000
0000
0000
0000
ENDCHAR
STARTCHAR bracketleft
ENCODING 219
SWIDTH 720 0
DWIDTH 12 0
BBX 12 19 0 0
BITMAP
0e00
0700
0700
0300
0300
0000
0000
0000
0000
0000
0000
0000
0000
0000
0000
0000
0000
0000
0000
ENDCHAR
STARTCHAR backslash
ENCODING 220
SWIDTH 720 0
DWIDTH 12 0
BBX 12 19 0 0
BITMAP
33e0
0070
0070
0070
0070
00e0
00e0
01c0
01c0
0380
0380
0300
0300
03f0
03f0
03f0
03f0
0000
0000
ENDCHAR
STARTCHAR bracketright
ENCODING 221
SWIDTH 720 0
DWIDTH 12 0
BBX 13 19 0 0
BITMAP
01c0
0380
0380
0300
0300
0000
0000
0000
0000
0000
0000
0000
0000
0000
0000
0000
0000
0000
0000
ENDCHAR
STARTCHAR asciicircum
ENCODING 222
SWIDTH 720 0
DWIDTH 12 0
BBX 12 19 0 0
BITMAP
0300
0300
0300
0300
0300
0000
0000
0000
0000
0000
0000
0000
0000
0000
0000
0000
0000
0000
0000
ENDCHAR
STARTCHAR numbersign
ENCODING 223
SWIDTH 720 0
DWIDTH 12 0
BBX 12 19 0 0
BITMAP
3ff0
0cc0
0cc0
0cc0
0cc0
0cc0
0cc0
0cc0
0cc0
0000
0000
0000
0000
0000
0000
0000
0000
0000
0000
ENDCHAR
STARTCHAR graphic32
ENCODING 224
SWIDTH 720 0
DWIDTH 12 0
BBX 12 19 0 0
BITMAP
0000
0000
0000
0000
0000
03f0
03f0
03f0
03f0
03f0
03f0
03f0
03f0
03f0
03f0
03f0
03f0
03f0
03f0
ENDCHAR
STARTCHAR graphic33
ENCODING 225
SWIDTH 720 0
DWIDTH 12 0
BBX 12 19 0 0
BITMAP
0000
0000
0000
0000
0000
03f0
03f0
03f0
03f0
03f0
03f0
03f0
03f0
03f0
03f0
03f0
03f0
03f0
03f0
ENDCHAR
STARTCHAR graphic34
ENCODING 226
SWIDTH 720 0
DWIDTH 12 0
BBX 12 19 0 0
BITMAP
0000
0000
0000
0000
0000
03f0
03f0
03f0
03f0
03f0
03f0
03f0
03f0
03f0
03f0
03f0
03f0
03f0
03f0
ENDCHAR
STARTCHAR graphic35
ENCODING 227
SWIDTH 720 0
DWIDTH 12 0
BBX 12 19 0 0
BITMAP
0000
0000
0000
0000
0000
03f0
03f0
03f0
03f0
03f0
03f0
03f0
03f0
03f0
03f0
03f0
03f0
03f0
03f0
ENDCHAR
STARTCHAR graphic36
ENCODING 228
SWIDTH 720 0
DWIDTH 12 0
BBX 12 19 0 0
BITMAP
fc00
fc00
fc00
fc00
fc00
03f0
03f0
03f0
03f0
03f0
03f0
03f0
03f0
03f0
03f0
03f0
03f0
03f0
03f0
ENDCHAR
STARTCHAR graphic37
ENCODING 229
SWIDTH 720 0
DWIDTH 12 0
BBX 12 19 0 0
BITMAP
fc00
fc00
fc00
fc00
fc00
03f0
03f0
03f0
03f0
03f0
03f0
03f0
03f0
03f0
03f0
03f0
03f0
03f0
03f0
ENDCHAR
STARTCHAR graphic38
ENCODING 230
SWIDTH 720 0
DWIDTH 12 0
BBX 12 19 0 0
BITMAP
fc00
fc00
fc00
fc00
fc00
03f0
03f0
03f0
03f0
03f0
03f0
03f0
03f0
03f0
03f0
03f0
03f0
03f0
03f0
ENDCHAR
STARTCHAR graphic39
ENCODING 231
SWIDTH 720 0
DWIDTH 12 0
BBX 12 19 0 0
BITMAP
fc00
fc00
fc00
fc00
fc00
03f0
03f0
03f0
03f0
03f0
03f0
03f0
03f0
03f0
03f0
03f0
03f0
03f0
03f0
ENDCHAR
STARTCHAR graphic40
ENCODING 232
SWIDTH 720 0
DWIDTH 12 0
BBX 12 19 0 0
BITMAP
03f0
03f0
03f0
03f0
03f0
03f0
03f0
03f0
03f0
03f0
03f0
03f0
03f0
03f0
03f0
03f0
03f0
03f0
03f0
ENDCHAR
STARTCHAR graphic41
ENCODING 233
SWIDTH 720 0
DWIDTH 12 0
BBX 12 19 0 0
BITMAP
03f0
03f0
03f0
03f0
03f0
03f0
03f0
03f0
03f0
03f0
03f0
03f0
03f0
03f0
03f0
03f0
03f0
03f0
03f0
ENDCHAR
STARTCHAR graphic42
ENCODING 234
SWIDTH 720 0
DWIDTH 12 0
BBX 12 19 0 0
BITMAP
03f0
03f0
03f0
03f0
03f0
03f0
03f0
03f0
03f0
03f0
03f0
03f0
03f0
03f0
03f0
03f0
03f0
03f0
03f0
ENDCHAR
STARTCHAR graphic43
ENCODING 235
SWIDTH 720 0
DWIDTH 12 0
BBX 12 19 0 0
BITMAP
03f0
03f0
03f0
03f0
03f0
03f0
03f0
03f0
03f0
03f0
03f0
03f0
03f0
03f0
03f0
03f0
03f0
03f0
03f0
ENDCHAR
STARTCHAR graphic44
ENCODING 236
SWIDTH 720 0
DWIDTH 12 0
BBX 12 19 0 0
BITMAP
fff0
fff0
fff0
fff0
fff0
03f0
03f0
03f0
03f0
03f0
03f0
03f0
03f0
03f0
03f0
03f0
03f0
03f0
03f0
ENDCHAR
STARTCHAR graphic45
ENCODING 237
SWIDTH 720 0
DWIDTH 12 0
BBX 12 19 0 0
BITMAP
fff0
fff0
fff0
fff0
fff0
03f0
03f0
03f0
03f0
03f0
03f0
03f0
03f0
03f0
03f0
03f0
03f0
03f0
03f0
ENDCHAR
STARTCHAR graphic46
ENCODING 238
SWIDTH 720 0
DWIDTH 12 0
BBX 12 19 0 0
BITMAP
fff0
fff0
fff0
fff0
fff0
03f0
03f0
03f0
03f0
03f0
03f0
03f0
03f0
03f0
03f0
03f0
03f0
03f0
03f0
ENDCHAR
STARTCHAR graphic47
ENCODING 239
SWIDTH 720 0
DWIDTH 12 0
BBX 12 19 0 0
BITMAP
fff0
fff0
fff0
fff0
fff0
03f0
03f0
03f0
03f0
03f0
03f0
03f0
03f0
03f0
03f0
03f0
03f0
03f0
03f0
ENDCHAR
STARTCHAR graphic48
ENCODING 240
SWIDTH 720 0
DWIDTH 12 0
BBX 12 19 0 0
BITMAP
0000
0000
0000
0000
0000
fff0
fff0
fff0
fff0
fff0
fff0
fff0
fff0
fff0
fff0
fff0
fff0
fff0
fff0
ENDCHAR
STARTCHAR graphic49
ENCODING 241
SWIDTH 720 0
DWIDTH 12 0
BBX 12 19 0 0
BITMAP
0000
0000
0000
0000
0000
fff0
fff0
fff0
fff0
fff0
fff0
fff0
fff0
fff0
fff0
fff0
fff0
fff0
fff0
ENDCHAR
STARTCHAR graphic50
ENCODING 242
SWIDTH 720 0
DWIDTH 12 0
BBX 12 19 0 0
BITMAP
0000
0000
0000
0000
0000
fff0
fff0
fff0
fff0
fff0
fff0
fff0
fff0
fff0
fff0
fff0
fff0
fff0
fff0
ENDCHAR
STARTCHAR graphic51
ENCODING 243
SWIDTH 720 0
DWIDTH 12 0
BBX 12 19 0 0
BITMAP
0000
0000
0000
0000
0000
fff0
fff0
fff0
fff0
fff0
fff0
fff0
fff0
fff0
fff0
fff0
fff0
fff0
fff0
ENDCHAR
STARTCHAR graphic52
ENCODING 244
SWIDTH 720 0
DWIDTH 12 0
BBX 12 19 0 0
BITMAP
fc00
fc00
fc00
fc00
fc00
fff0
fff0
fff0
fff0
fff0
fff0
fff0
fff0
fff0
fff0
fff0
fff0
fff0
fff0
ENDCHAR
STARTCHAR graphic53
ENCODING 245
SWIDTH 720 0
DWIDTH 12 0
BBX 12 19 0 0
BITMAP
fc00
fc00
fc00
fc00
fc00
fff0
fff0
fff0
fff0
fff0
fff0
fff0
fff0
fff0
fff0
fff0
fff0
fff0
fff0
ENDCHAR
STARTCHAR graphic54
ENCODING 246
SWIDTH 720 0
DWIDTH 12 0
BBX 12 19 0 0
BITMAP
fc00
fc00
fc00
fc00
fc00
fff0
fff0
fff0
fff0
fff0
fff0
fff0
fff0
fff0
fff0
fff0
fff0
fff0
fff0
ENDCHAR
STARTCHAR graphic55
ENCODING 247
SWIDTH 720 0
DWIDTH 12 0
BBX 12 19 0 0
BITMAP
fc00
fc00
fc00
fc00
fc00
fff0
fff0
fff0
fff0
fff0
fff0
fff0
fff0
fff0
fff0
fff0
fff0
fff0
fff0
ENDCHAR
STARTCHAR graphic56
ENCODING 248
SWIDTH 720 0
DWIDTH 12 0
BBX 12 19 0 0
BITMAP
03f0
03f0
03f0
03f0
03f0
fff0
fff0
fff0
fff0
fff0
fff0
fff0
fff0
fff0
fff0
fff0
fff0
fff0
fff0
ENDCHAR
STARTCHAR graphic57
ENCODING 249
SWIDTH 720 0
DWIDTH 12 0
BBX 12 19 0 0
BITMAP
03f0
03f0
03f0
03f0
03f0
fff0
fff0
fff0
fff0
fff0
fff0
fff0
fff0
fff0
fff0
fff0
fff0
fff0
fff0
ENDCHAR
STARTCHAR graphic58
ENCODING 250
SWIDTH 720 0
DWIDTH 12 0
BBX 12 19 0 0
BITMAP
03f0
03f0
03f0
03f0
03f0
fff0
fff0
fff0
fff0
fff0
fff0
fff0
fff0
fff0
fff0
fff0
fff0
fff0
fff0
ENDCHAR
STARTCHAR graphic59
ENCODING 251
SWIDTH 720 0
DWIDTH 12 0
BBX 12 19 0 0
BITMAP
03f0
03f0
03f0
03f0
03f0
fff0
fff0
fff0
fff0
fff0
fff0
fff0
fff0
fff0
fff0
fff0
fff0
fff0
fff0
ENDCHAR
STARTCHAR graphic60
ENCODING 252
SWIDTH 720 0
DWIDTH 12 0
BBX 12 19 0 0
BITMAP
fff0
fff0
fff0
fff0
fff0
fff0
fff0
fff0
fff0
fff0
fff0
fff0
fff0
fff0
fff0
fff0
fff0
fff0
fff0
ENDCHAR
STARTCHAR graphic61
ENCODING 253
SWIDTH 720 0
DWIDTH 12 0
BBX 12 19 0 0
BITMAP
fff0
fff0
fff0
fff0
fff0
fff0
fff0
fff0
fff0
fff0
fff0
fff0
fff0
fff0
fff0
fff0
fff0
fff0
fff0
ENDCHAR
STARTCHAR graphic62
ENCODING 254
SWIDTH 720 0
DWIDTH 12 0
BBX 12 19 0 0
BITMAP
fff0
fff0
fff0
fff0
fff0
fff0
fff0
fff0
fff0
fff0
fff0
fff0
fff0
fff0
fff0
fff0
fff0
fff0
fff0
ENDCHAR
STARTCHAR graphic63
ENCODING 255
SWIDTH 720 0
DWIDTH 12 0
BBX 12 19 0 0
BITMAP
fff0
fff0
fff0
fff0
fff0
fff0
fff0
fff0
fff0
fff0
fff0
fff0
fff0
fff0
fff0
fff0
fff0
fff0
fff0
ENDCHAR
ENDFONT
