STARTFONT 2.1
COMMENT  
COMMENT   $Id: ttext-std-udh.bdf,v 1.4 2002/01/15 15:46:39 james Exp $
COMMENT  
COMMENT   Copyright (C) James Fidell 1994-2002.
COMMENT  
COMMENT   Permission to use, copy, modify and distribute this
COMMENT   software and its documentation for any purpose is hereby
COMMENT   granted without fee, provided that the above copyright notice
COMMENT   appear in all copies and that both that copyright notice and
COMMENT   this permission notice appear in supporting documentation,
COMMENT   and that the name of the copyright holder not be used in
COMMENT   advertising or publicity pertaining to distribution of
COMMENT   the software without specific, written prior permission.
COMMENT   The copyright holder makes no representations about the
COMMENT   suitability of this software for any purpose. It is provided
COMMENT   "as is" without express or implied warranty.
COMMENT
COMMENT   THE COPYRIGHT HOLDER DISCLAIMS ALL WARRANTIES WITH REGARD
COMMENT   TO THIS SOFTWARE, INCLUDING ALL IMPLIED WARRANTIES OF
COMMENT   MERCHANTABILITY AND FITNESS, IN NO EVENT SHALL THE COPYRIGHT
COMMENT   HOLDER BE LIABLE FOR ANY SPECIAL, INDIRECT OR CONSEQUENTIAL
COMMENT   DAMAGES OR ANY DAMAGES WHATSOEVER RESULTING FROM LOSS OF USE,
COMMENT   DATA OR PROFITS, WHETHER IN AN ACTION OF CONTRACT, NEGLIGENCE
COMMENT   OR OTHER TORTIOUS ACTION, ARISING OUT OF OR IN CONNECTION WITH
COMMENT   THE USE OR PERFORMANCE OF THIS SOFTWARE.
COMMENT
COMMENT   Revision History
COMMENT
COMMENT   $Log: ttext-std-udh.bdf,v $
COMMENT   Revision 1.4  2002/01/15 15:46:39  james
COMMENT   *** empty log message ***
COMMENT
COMMENT   Revision 1.3  2000/08/16 17:58:25  james
COMMENT   Update copyright message
COMMENT
COMMENT   Revision 1.2  1996/09/24 23:05:27  james
COMMENT   Update copyright dates.
COMMENT
COMMENT   Revision 1.1.1.1  1996/09/21 13:52:48  james
COMMENT   Xbeeb v0.1 initial release
COMMENT
COMMENT
FONT ttext-std-udh
SIZE 19 100 100
FONTBOUNDINGBOX 12 19 0 0
STARTPROPERTIES 13
FONTNAME_REGISTRY ""
FOUNDRY "Misc"
FAMILY_NAME "ttext"
WEIGHT_NAME "Medium"
SLANT "R"
PIXEL_SIZE 19
POINT_SIZE 190
RESOLUTION_X 100
RESOLUTION_Y 100
SPACING "C"
DEFAULT_CHAR 32
FONT_DESCENT 0
FONT_ASCENT 19
ENDPROPERTIES
CHARS 192
STARTCHAR space
ENCODING 32
SWIDTH 720 0
DWIDTH 12 0
BBX 12 19 0 0
BITMAP
0000
0000
0000
0000
0000
0000
0000
0000
0000
0000
0000
0000
0000
0000
0000
0000
0000
0000
0000
ENDCHAR
STARTCHAR exclam
ENCODING 33
SWIDTH 720 0
DWIDTH 12 0
BBX 12 19 0 0
BITMAP
0300
0300
0300
0300
0300
0300
0300
0300
0300
0300
0300
0300
0300
0300
0300
0300
0300
0300
0300
ENDCHAR
STARTCHAR quotedbl
ENCODING 34
SWIDTH 720 0
DWIDTH 12 0
BBX 12 19 0 0
BITMAP
0cc0
0cc0
0cc0
0cc0
0cc0
0cc0
0cc0
0cc0
0cc0
0cc0
0cc0
0cc0
0000
0000
0000
0000
0000
0000
0000
ENDCHAR
STARTCHAR numbersign
ENCODING 95
SWIDTH 720 0
DWIDTH 12 0
BBX 12 19 0 0
BITMAP
0cc0
0cc0
0cc0
0cc0
0cc0
0cc0
0cc0
0cc0
3ff0
3ff0
3ff0
3ff0
0cc0
0cc0
0cc0
0cc0
3ff0
3ff0
3ff0
ENDCHAR
STARTCHAR dollar
ENCODING 36
SWIDTH 720 0
DWIDTH 12 0
BBX 12 19 0 0
BITMAP
0780
0fc0
1fe0
1fe0
3b70
3b70
3330
3330
3300
3300
3b00
3b00
1f80
1fc0
0fe0
07e0
0370
0370
0330
ENDCHAR
STARTCHAR percent
ENCODING 37
SWIDTH 720 0
DWIDTH 12 0
BBX 12 19 0 0
BITMAP
1800
1800
3c10
3c10
1830
1830
0070
0070
00e0
00e0
01c0
01c0
0380
0380
0700
0700
0e00
0e00
1c00
ENDCHAR
STARTCHAR ampersand
ENCODING 38
SWIDTH 720 0
DWIDTH 12 0
BBX 13 19 0 0
BITMAP
0c00
0c00
1e00
1e00
3f00
3f00
3300
3300
3300
3300
3f00
3f00
1e00
1e00
1e00
1e00
3f30
3f30
33b0
ENDCHAR
STARTCHAR quoteright
ENCODING 39
SWIDTH 720 0
DWIDTH 12 0
BBX 12 19 0 0
BITMAP
0300
0300
0300
0300
0300
0300
0300
0300
0300
0300
0300
0300
0000
0000
0000
0000
0000
0000
0000
ENDCHAR
STARTCHAR parenleft
ENCODING 40
SWIDTH 720 0
DWIDTH 12 0
BBX 12 19 0 0
BITMAP
00c0
00c0
01c0
01c0
0380
0380
0700
0700
0e00
0e00
0c00
0c00
0c00
0c00
0c00
0c00
0c00
0c00
0e00
ENDCHAR
STARTCHAR parenright
ENCODING 41
SWIDTH 720 0
DWIDTH 12 0
BBX 12 19 0 0
BITMAP
0c00
0c00
0e00
0e00
0700
0700
0380
0380
01c0
01c0
00c0
00c0
00c0
00c0
00c0
00c0
00c0
00c0
01c0
ENDCHAR
STARTCHAR asterisk
ENCODING 42
SWIDTH 720 0
DWIDTH 12 0
BBX 12 19 0 0
BITMAP
0300
0300
0300
0300
3330
3330
3b70
3b70
1fe0
1fe0
0fc0
0fc0
0780
0780
0780
0780
0fc0
0fc0
1fe0
ENDCHAR
STARTCHAR plus
ENCODING 43
SWIDTH 720 0
DWIDTH 12 0
BBX 12 19 0 0
BITMAP
0000
0000
0000
0000
0300
0300
0300
0300
0300
0300
0300
3ff0
3ff0
3ff0
3ff0
0300
0300
0300
0300
ENDCHAR
STARTCHAR comma
ENCODING 44
SWIDTH 720 0
DWIDTH 12 0
BBX 12 19 0 0
BITMAP
0000
0000
0000
0000
0000
0000
0000
0000
0000
0000
0000
0000
0000
0000
0000
0000
0300
0300
0300
ENDCHAR
STARTCHAR hyphen
ENCODING 45
SWIDTH 720 0
DWIDTH 12 0
BBX 18 19 0 0
BITMAP
0000
0000
0000
0000
0000
0000
0000
0000
0fc0
0fc0
0fc0
0fc0
0000
0000
0000
0000
0000
0000
0000
ENDCHAR
STARTCHAR period
ENCODING 46
SWIDTH 720 0
DWIDTH 12 0
BBX 12 19 0 0
BITMAP
0000
0000
0000
0000
0000
0000
0000
0000
0000
0000
0000
0000
0000
0000
0000
0000
0000
0000
0000
ENDCHAR
STARTCHAR slash
ENCODING 47
SWIDTH 720 0
DWIDTH 12 0
BBX 12 19 0 0
BITMAP
0000
0000
0000
0010
0030
0030
0070
0070
00e0
00e0
01c0
01c0
0380
0380
0700
0700
0e00
0e00
1c00
ENDCHAR
STARTCHAR zero
ENCODING 48
SWIDTH 720 0
DWIDTH 12 0
BBX 12 19 0 0
BITMAP
0000
0300
0780
0780
0fc0
0fc0
1ce0
1ce0
3870
3870
3030
3030
3030
3030
3030
3030
3030
3030
3870
ENDCHAR
STARTCHAR one
ENCODING 49
SWIDTH 720 0
DWIDTH 12 0
BBX 12 19 0 0
BITMAP
0300
0300
0700
0700
0f00
0f00
0f00
0f00
0300
0300
0300
0300
0300
0300
0300
0300
0300
0300
0300
ENDCHAR
STARTCHAR two
ENCODING 50
SWIDTH 720 0
DWIDTH 12 0
BBX 12 19 0 0
BITMAP
0780
0fc0
1fe0
1ce0
3870
3870
3030
3030
0030
0030
0070
0070
00e0
01e0
03c0
0780
0f00
0e00
1c00
ENDCHAR
STARTCHAR three
ENCODING 51
SWIDTH 720 0
DWIDTH 12 0
BBX 13 19 0 0
BITMAP
3ff0
3ff0
3ff0
3ff0
0030
0030
0070
0070
00e0
00e0
01c0
01c0
03c0
03c0
03e0
03e0
0070
0070
0030
ENDCHAR
STARTCHAR four
ENCODING 52
SWIDTH 720 0
DWIDTH 12 0
BBX 12 19 0 0
BITMAP
00c0
00c0
01c0
01c0
03c0
03c0
07c0
07c0
0ec0
0ec0
1cc0
1cc0
38c0
38c0
30c0
30c0
3ff0
3ff0
3ff0
ENDCHAR
STARTCHAR five
ENCODING 53
SWIDTH 720 0
DWIDTH 12 0
BBX 13 19 0 0
BITMAP
3ff0
3ff0
3ff0
3ff0
3000
3000
3000
3000
3f00
3fc0
3fe0
3ff0
00f0
0070
0030
0030
0030
0030
0030
ENDCHAR
STARTCHAR six
ENCODING 54
SWIDTH 720 0
DWIDTH 12 0
BBX 13 19 0 0
BITMAP
01c0
03c0
0780
0700
0e00
0e00
1c00
1c00
3800
3800
3000
3000
3fc0
3fc0
3fe0
3fe0
3070
3070
3030
ENDCHAR
STARTCHAR seven
ENCODING 55
SWIDTH 720 0
DWIDTH 12 0
BBX 12 19 0 0
BITMAP
3ff0
3ff0
3ff0
3ff0
0030
0030
0070
0070
00e0
00e0
01c0
01c0
0380
0380
0700
0700
0e00
0e00
0c00
ENDCHAR
STARTCHAR eight
ENCODING 56
SWIDTH 720 0
DWIDTH 12 0
BBX 13 19 0 0
BITMAP
0fc0
0fc0
1fe0
1fe0
3870
3870
3030
3030
3030
3030
3870
3870
1fe0
1fe0
1fe0
1fe0
3870
3870
3030
ENDCHAR
STARTCHAR nine
ENCODING 57
SWIDTH 720 0
DWIDTH 12 0
BBX 13 19 0 0
BITMAP
0780
0fc0
1fe0
1fe0
3870
3870
3030
3030
3030
3030
3830
3830
1ff0
1ff0
0ff0
07f0
0030
0030
0070
ENDCHAR
STARTCHAR colon
ENCODING 58
SWIDTH 720 0
DWIDTH 12 0
BBX 12 19 0 0
BITMAP
0000
0000
0000
0000
0000
0000
0000
0000
0300
0300
0300
0300
0000
0000
0000
0000
0000
0000
0000
ENDCHAR
STARTCHAR semicolon
ENCODING 59
SWIDTH 720 0
DWIDTH 12 0
BBX 14 19 0 0
BITMAP
0000
0000
0000
0000
0000
0000
0000
0000
0300
0300
0300
0300
0000
0000
0000
0000
0000
0000
0000
ENDCHAR
STARTCHAR less
ENCODING 60
SWIDTH 720 0
DWIDTH 12 0
BBX 15 19 0 0
BITMAP
00c0
00c0
01c0
01c0
0380
0380
0700
0700
0e00
0e00
1c00
1c00
3800
3800
3800
3800
1c00
1c00
0e00
ENDCHAR
STARTCHAR equal
ENCODING 61
SWIDTH 720 0
DWIDTH 12 0
BBX 12 19 0 0
BITMAP
0000
0000
0000
0000
0000
0000
0000
0000
3ff0
3ff0
3ff0
3ff0
0000
0000
0000
0000
0000
0000
0000
ENDCHAR
STARTCHAR greater
ENCODING 62
SWIDTH 720 0
DWIDTH 12 0
BBX 14 19 0 0
BITMAP
0c00
0c00
0e00
0e00
0700
0700
0380
0380
01c0
01c0
00e0
00e0
0070
0070
0070
0070
00e0
00e0
01c0
ENDCHAR
STARTCHAR question
ENCODING 63
SWIDTH 720 0
DWIDTH 12 0
BBX 12 19 0 0
BITMAP
0780
0fc0
1fe0
1fe0
3870
3870
3070
3070
00e0
00e0
01c0
01c0
0380
0380
0300
0300
0300
0300
0300
ENDCHAR
STARTCHAR at
ENCODING 64
SWIDTH 720 0
DWIDTH 12 0
BBX 13 19 0 0
BITMAP
0780
0fc0
1fe0
1fe0
3870
3870
3030
3030
31f0
31f0
33f0
33f0
3330
3330
3330
3330
33f0
33f0
31e0
ENDCHAR
STARTCHAR A
ENCODING 65
SWIDTH 720 0
DWIDTH 12 0
BBX 12 19 0 0
BITMAP
0300
0300
0780
0780
0fc0
0fc0
1ce0
1ce0
3870
3870
3030
3030
3030
3030
3030
3030
3ff0
3ff0
3ff0
ENDCHAR
STARTCHAR B
ENCODING 66
SWIDTH 720 0
DWIDTH 12 0
BBX 13 19 0 0
BITMAP
3fc0
3fc0
3fe0
3fe0
3070
3070
3030
3030
3030
3030
3070
3070
3fe0
3fe0
3fe0
3fe0
3070
3070
3030
ENDCHAR
STARTCHAR C
ENCODING 67
SWIDTH 720 0
DWIDTH 12 0
BBX 12 19 0 0
BITMAP
0780
0fc0
1fe0
1fe0
3870
3870
3030
3030
3000
3000
3000
3000
3000
3000
3000
3000
3000
3000
3000
ENDCHAR
STARTCHAR D
ENCODING 68
SWIDTH 720 0
DWIDTH 12 0
BBX 16 19 0 0
BITMAP
3f80
3fc0
3fe0
3fe0
3070
3070
3030
3030
3030
3030
3030
3030
3030
3030
3030
3030
3030
3030
3030
ENDCHAR
STARTCHAR E
ENCODING 69
SWIDTH 720 0
DWIDTH 12 0
BBX 12 19 0 0
BITMAP
3ff0
3ff0
3ff0
3ff0
3000
3000
3000
3000
3000
3000
3000
3000
3fc0
3fc0
3fc0
3fc0
3000
3000
3000
ENDCHAR
STARTCHAR F
ENCODING 70
SWIDTH 720 0
DWIDTH 12 0
BBX 12 19 0 0
BITMAP
3ff0
3ff0
3ff0
3ff0
3000
3000
3000
3000
3000
3000
3000
3000
3fc0
3fc0
3fc0
3fc0
3000
3000
3000
ENDCHAR
STARTCHAR G
ENCODING 71
SWIDTH 720 0
DWIDTH 12 0
BBX 15 19 0 0
BITMAP
0780
0fc0
1fe0
1fe0
3870
3870
3030
3030
3000
3000
3000
3000
3000
3000
3000
3000
30f0
30f0
30f0
ENDCHAR
STARTCHAR H
ENCODING 72
SWIDTH 720 0
DWIDTH 12 0
BBX 14 19 0 0
BITMAP
3030
3030
3030
3030
3030
3030
3030
3030
3030
3030
3030
3030
3ff0
3ff0
3ff0
3ff0
3030
3030
3030
ENDCHAR
STARTCHAR I
ENCODING 73
SWIDTH 720 0
DWIDTH 12 0
BBX 12 19 0 0
BITMAP
0fc0
0fc0
0fc0
0fc0
0300
0300
0300
0300
0300
0300
0300
0300
0300
0300
0300
0300
0300
0300
0300
ENDCHAR
STARTCHAR J
ENCODING 74
SWIDTH 720 0
DWIDTH 12 0
BBX 12 19 0 0
BITMAP
0030
0030
0030
0030
0030
0030
0030
0030
0030
0030
0030
0030
0030
0030
0030
0030
0030
0030
0030
ENDCHAR
STARTCHAR K
ENCODING 75
SWIDTH 720 0
DWIDTH 12 0
BBX 12 19 0 0
BITMAP
3030
3030
3070
3070
30e0
30e0
31c0
31c0
3380
3380
3700
3700
3e00
3e00
3e00
3e00
3700
3700
3380
ENDCHAR
STARTCHAR L
ENCODING 76
SWIDTH 720 0
DWIDTH 12 0
BBX 12 19 0 0
BITMAP
3000
3000
3000
3000
3000
3000
3000
3000
3000
3000
3000
3000
3000
3000
3000
3000
3000
3000
3000
ENDCHAR
STARTCHAR M
ENCODING 77
SWIDTH 720 0
DWIDTH 12 0
BBX 13 19 0 0
BITMAP
3030
3030
3870
3870
3cf0
3cf0
3ff0
3ff0
37b0
37b0
3330
3330
3030
3030
3030
3030
3030
3030
3030
ENDCHAR
STARTCHAR N
ENCODING 78
SWIDTH 720 0
DWIDTH 12 0
BBX 16 19 0 0
BITMAP
3030
3030
3030
3030
3030
3030
3830
3830
3c30
3c30
3e30
3e30
3730
3730
33b0
33b0
31f0
31f0
30f0
ENDCHAR
STARTCHAR O
ENCODING 79
SWIDTH 720 0
DWIDTH 12 0
BBX 12 19 0 0
BITMAP
0780
0fc0
1fe0
1fe0
3870
3870
3030
3030
3030
3030
3030
3030
3030
3030
3030
3030
3030
3030
3030
ENDCHAR
STARTCHAR P
ENCODING 80
SWIDTH 720 0
DWIDTH 12 0
BBX 12 19 0 0
BITMAP
3f80
3fc0
3fe0
3fe0
3070
3070
3030
3030
3030
3030
3070
3070
3fe0
3fe0
3fc0
3f80
3000
3000
3000
ENDCHAR
STARTCHAR Q
ENCODING 81
SWIDTH 720 0
DWIDTH 12 0
BBX 12 19 0 0
BITMAP
0780
0fc0
1fe0
1fe0
3870
3870
3030
3030
3030
3030
3030
3030
3030
3030
3030
3030
3330
3330
33b0
ENDCHAR
STARTCHAR R
ENCODING 82
SWIDTH 720 0
DWIDTH 12 0
BBX 12 19 0 0
BITMAP
3f80
3fc0
3fe0
3fe0
3070
3070
3030
3030
3030
3030
3070
3070
3fe0
3fe0
3fc0
3fc0
3700
3700
3380
ENDCHAR
STARTCHAR S
ENCODING 83
SWIDTH 720 0
DWIDTH 12 0
BBX 12 19 0 0
BITMAP
0780
0fc0
1fe0
1fe0
3870
3870
3030
3030
3000
3000
3800
3c00
1f00
1fc0
0fe0
03e0
00f0
0070
0030
ENDCHAR
STARTCHAR T
ENCODING 84
SWIDTH 720 0
DWIDTH 12 0
BBX 12 19 0 0
BITMAP
3ff0
3ff0
3ff0
3ff0
0300
0300
0300
0300
0300
0300
0300
0300
0300
0300
0300
0300
0300
0300
0300
ENDCHAR
STARTCHAR U
ENCODING 85
SWIDTH 720 0
DWIDTH 12 0
BBX 12 19 0 0
BITMAP
3030
3030
3030
3030
3030
3030
3030
3030
3030
3030
3030
3030
3030
3030
3030
3030
3030
3030
3030
ENDCHAR
STARTCHAR V
ENCODING 86
SWIDTH 720 0
DWIDTH 12 0
BBX 12 19 0 0
BITMAP
3030
3030
3030
3030
3030
3030
3030
3030
3030
3030
3870
3870
1ce0
1ce0
0cc0
0cc0
0cc0
0cc0
0fc0
ENDCHAR
STARTCHAR W
ENCODING 87
SWIDTH 720 0
DWIDTH 12 0
BBX 12 19 0 0
BITMAP
3030
3030
3030
3030
3030
3030
3030
3030
3030
3030
3030
3030
3330
3330
3330
3330
3330
3330
3330
ENDCHAR
STARTCHAR X
ENCODING 88
SWIDTH 720 0
DWIDTH 12 0
BBX 12 19 0 0
BITMAP
3030
3030
3030
3030
3030
3030
3870
3870
1ce0
1ce0
0fc0
0fc0
0780
0780
0780
0780
0fc0
0fc0
1ce0
ENDCHAR
STARTCHAR Y
ENCODING 89
SWIDTH 720 0
DWIDTH 12 0
BBX 12 19 0 0
BITMAP
3030
3030
3030
3030
3030
3030
3870
3870
1ce0
1ce0
0fc0
0fc0
0780
0780
0300
0300
0300
0300
0300
ENDCHAR
STARTCHAR Z
ENCODING 90
SWIDTH 720 0
DWIDTH 12 0
BBX 12 19 0 0
BITMAP
3ff0
3ff0
3ff0
3ff0
0030
0030
0070
0070
00e0
00e0
01c0
01c0
0380
0380
0700
0700
0e00
0e00
1c00
ENDCHAR
STARTCHAR bracketleft
ENCODING 91
SWIDTH 720 0
DWIDTH 12 0
BBX 12 19 0 0
BITMAP
0000
0000
0000
0000
0300
0300
0700
0700
0e00
0e00
1c00
1c00
3ff0
3ff0
3ff0
3ff0
1c00
1c00
0e00
ENDCHAR
STARTCHAR backslash
ENCODING 92
SWIDTH 720 0
DWIDTH 12 0
BBX 13 19 0 0
BITMAP
3000
3000
3000
3000
3000
3000
3000
3000
3000
3000
3000
3000
3000
3000
3000
3000
33c0
33c0
33e0
ENDCHAR
STARTCHAR bracketright
ENCODING 93
SWIDTH 720 0
DWIDTH 12 0
BBX 12 19 0 0
BITMAP
0000
0000
0000
0000
0300
0300
0380
0380
01c0
01c0
00e0
00e0
3ff0
3ff0
3ff0
3ff0
00e0
00e0
01c0
ENDCHAR
STARTCHAR asciicircum
ENCODING 94
SWIDTH 720 0
DWIDTH 12 0
BBX 12 19 0 0
BITMAP
0000
0000
0000
0000
0300
0300
0780
0780
0fc0
0fc0
1fe0
1fe0
3b70
3b70
3330
3330
0300
0300
0300
ENDCHAR
STARTCHAR underscore
ENCODING 96
SWIDTH 720 0
DWIDTH 12 0
BBX 12 19 0 0
BITMAP
0000
0000
0000
0000
0000
0000
0000
0000
3ff0
3ff0
3ff0
3ff0
0000
0000
0000
0000
0000
0000
0000
ENDCHAR
STARTCHAR quoteleft
ENCODING 35
SWIDTH 720 0
DWIDTH 12 0
BBX 13 19 0 0
BITMAP
0180
03c0
07e0
07e0
0e70
0e70
0c30
0c30
0c00
0c00
0c00
0c00
0c00
0c00
0c00
0c00
3f00
3f00
3f00
ENDCHAR
STARTCHAR a
ENCODING 97
SWIDTH 720 0
DWIDTH 12 0
BBX 12 19 0 0
BITMAP
0000
0000
0000
0000
0000
0000
0000
0000
0fc0
0fc0
0fe0
0fe0
0070
0070
0030
0030
0ff0
0ff0
1ff0
ENDCHAR
STARTCHAR b
ENCODING 98
SWIDTH 720 0
DWIDTH 12 0
BBX 13 19 0 0
BITMAP
3000
3000
3000
3000
3000
3000
3000
3000
3fc0
3fc0
3fe0
3fe0
3070
3070
3030
3030
3030
3030
3030
ENDCHAR
STARTCHAR c
ENCODING 99
SWIDTH 720 0
DWIDTH 12 0
BBX 12 19 0 0
BITMAP
0000
0000
0000
0000
0000
0000
0000
0000
0ff0
0ff0
1ff0
1ff0
3800
3800
3000
3000
3000
3000
3000
ENDCHAR
STARTCHAR d
ENCODING 100
SWIDTH 720 0
DWIDTH 12 0
BBX 12 19 0 0
BITMAP
0030
0030
0030
0030
0030
0030
0030
0030
0ff0
0ff0
1ff0
1ff0
3830
3830
3030
3030
3030
3030
3030
ENDCHAR
STARTCHAR e
ENCODING 101
SWIDTH 720 0
DWIDTH 12 0
BBX 12 19 0 0
BITMAP
0000
0000
0000
0000
0000
0000
0000
0000
0780
0fc0
1fe0
1fe0
3870
3870
3030
3030
3ff0
3ff0
3ff0
ENDCHAR
STARTCHAR f
ENCODING 102
SWIDTH 720 0
DWIDTH 12 0
BBX 12 19 0 0
BITMAP
0040
00c0
01c0
01c0
0380
0380
0300
0300
0300
0300
0300
0300
0fc0
0fc0
0fc0
0fc0
0300
0300
0300
ENDCHAR
STARTCHAR g
ENCODING 103
SWIDTH 720 0
DWIDTH 12 0
BBX 13 19 0 0
BITMAP
0000
0000
0000
0000
0000
0000
0000
0000
0ff0
0ff0
1ff0
1ff0
3830
3830
3030
3030
3030
3030
3030
ENDCHAR
STARTCHAR h
ENCODING 104
SWIDTH 720 0
DWIDTH 12 0
BBX 12 19 0 0
BITMAP
3000
3000
3000
3000
3000
3000
3000
3000
3fc0
3fc0
3fe0
3fe0
3070
3070
3030
3030
3030
3030
3030
ENDCHAR
STARTCHAR i
ENCODING 105
SWIDTH 720 0
DWIDTH 12 0
BBX 12 19 0 0
BITMAP
0300
0300
0300
0300
0000
0000
0000
0000
0f00
0f00
0f00
0f00
0300
0300
0300
0300
0300
0300
0300
ENDCHAR
STARTCHAR j
ENCODING 106
SWIDTH 720 0
DWIDTH 12 0
BBX 12 19 0 0
BITMAP
0300
0300
0300
0300
0000
0000
0000
0000
0300
0300
0300
0300
0300
0300
0300
0300
0300
0300
0300
ENDCHAR
STARTCHAR k
ENCODING 107
SWIDTH 720 0
DWIDTH 12 0
BBX 12 19 0 0
BITMAP
0c00
0c00
0c00
0c00
0c00
0c00
0c00
0c00
0c30
0c30
0c70
0c70
0ce0
0ce0
0dc0
0dc0
0f80
0f80
0f80
ENDCHAR
STARTCHAR l
ENCODING 108
SWIDTH 720 0
DWIDTH 12 0
BBX 12 19 0 0
BITMAP
0f00
0f00
0f00
0f00
0300
0300
0300
0300
0300
0300
0300
0300
0300
0300
0300
0300
0300
0300
0300
ENDCHAR
STARTCHAR m
ENCODING 109
SWIDTH 720 0
DWIDTH 12 0
BBX 13 19 0 0
BITMAP
0000
0000
0000
0000
0000
0000
0000
0000
0000
3cc0
3fe0
3fe0
37f0
3330
3330
3330
3330
3330
3330
ENDCHAR
STARTCHAR n
ENCODING 110
SWIDTH 720 0
DWIDTH 12 0
BBX 12 19 0 0
BITMAP
0000
0000
0000
0000
0000
0000
0000
0000
3f80
3fc0
3fe0
3fe0
3070
3070
3030
3030
3030
3030
3030
ENDCHAR
STARTCHAR o
ENCODING 111
SWIDTH 720 0
DWIDTH 12 0
BBX 12 19 0 0
BITMAP
0000
0000
0000
0000
0000
0000
0000
0000
0780
0fc0
1fe0
1fe0
3870
3870
3030
3030
3030
3030
3030
ENDCHAR
STARTCHAR p
ENCODING 112
SWIDTH 720 0
DWIDTH 12 0
BBX 12 19 0 0
BITMAP
0000
0000
0000
0000
0000
0000
0000
0000
3f80
3fc0
3fe0
3fe0
3070
3070
3030
3030
3030
3030
3030
ENDCHAR
STARTCHAR q
ENCODING 113
SWIDTH 720 0
DWIDTH 12 0
BBX 12 19 0 0
BITMAP
0000
0000
0000
0000
0000
0000
0000
0000
07f0
0ff0
1ff0
1ff0
3830
3830
3030
3030
3030
3030
3030
ENDCHAR
STARTCHAR r
ENCODING 114
SWIDTH 720 0
DWIDTH 12 0
BBX 12 19 0 0
BITMAP
0000
0000
0000
0000
0000
0000
0000
0000
0c70
0cf0
0df0
0dc0
0f80
0f80
0f00
0f00
0c00
0c00
0c00
ENDCHAR
STARTCHAR s
ENCODING 115
SWIDTH 720 0
DWIDTH 12 0
BBX 12 19 0 0
BITMAP
0000
0000
0000
0000
0000
0000
0000
0000
07f0
0ff0
1ff0
1ff0
3800
3800
3800
3800
1fc0
1fc0
0fe0
ENDCHAR
STARTCHAR t
ENCODING 116
SWIDTH 720 0
DWIDTH 12 0
BBX 12 19 0 0
BITMAP
0300
0300
0300
0300
0300
0300
0300
0300
0fc0
0fc0
0fc0
0fc0
0300
0300
0300
0300
0300
0300
0300
ENDCHAR
STARTCHAR u
ENCODING 117
SWIDTH 720 0
DWIDTH 12 0
BBX 13 19 0 0
BITMAP
0000
0000
0000
0000
0000
0000
0000
0000
3030
3030
3030
3030
3030
3030
3030
3030
3030
3030
3030
ENDCHAR
STARTCHAR v
ENCODING 118
SWIDTH 720 0
DWIDTH 12 0
BBX 12 19 0 0
BITMAP
0000
0000
0000
0000
0000
0000
0000
0000
3030
3030
3030
3030
3030
3030
3870
3870
1ce0
1ce0
0cc0
ENDCHAR
STARTCHAR w
ENCODING 119
SWIDTH 720 0
DWIDTH 12 0
BBX 12 19 0 0
BITMAP
0000
0000
0000
0000
0000
0000
0000
0000
3030
3030
3030
3030
3030
3030
3030
3030
3330
3330
3330
ENDCHAR
STARTCHAR x
ENCODING 120
SWIDTH 720 0
DWIDTH 12 0
BBX 12 19 0 0
BITMAP
0000
0000
0000
0000
0000
0000
0000
0000
3030
3030
3870
3870
1ce0
1ce0
0fc0
0fc0
0780
0780
0780
ENDCHAR
STARTCHAR y
ENCODING 121
SWIDTH 720 0
DWIDTH 12 0
BBX 12 19 0 0
BITMAP
0000
0000
0000
0000
0000
0000
0000
0000
3030
3030
3030
3030
3030
3030
3030
3030
3030
3030
3030
ENDCHAR
STARTCHAR z
ENCODING 122
SWIDTH 720 0
DWIDTH 12 0
BBX 12 19 0 0
BITMAP
0000
0000
0000
0000
0000
0000
0000
0000
3ff0
3ff0
3ff0
3ff0
00e0
00e0
01c0
01c0
0380
0380
0700
ENDCHAR
STARTCHAR braceleft
ENCODING 123
SWIDTH 720 0
DWIDTH 12 0
BBX 12 19 0 0
BITMAP
0c00
0c00
0c00
0c00
0c00
0c00
0c00
0c00
0c00
0c00
0c00
0c00
0c00
0c00
0c00
0c00
0c30
0c30
0c70
ENDCHAR
STARTCHAR bar
ENCODING 124
SWIDTH 720 0
DWIDTH 12 0
BBX 12 19 0 0
BITMAP
0cc0
0cc0
0cc0
0cc0
0cc0
0cc0
0cc0
0cc0
0cc0
0cc0
0cc0
0cc0
0cc0
0cc0
0cc0
0cc0
0cc0
0cc0
0cc0
ENDCHAR
STARTCHAR braceright
ENCODING 125
SWIDTH 720 0
DWIDTH 12 0
BBX 12 19 0 0
BITMAP
3800
3c00
3e00
3e00
0700
0700
0700
0700
3e00
3e00
3e00
3e00
0700
0700
0700
0700
3e30
3e30
3c70
ENDCHAR
STARTCHAR divide
ENCODING 126
SWIDTH 720 0
DWIDTH 12 0
BBX 12 19 0 0
BITMAP
0000
0000
0000
0000
0300
0300
0300
0300
0000
0000
0000
0000
3ff0
3ff0
3ff0
3ff0
0000
0000
0000
ENDCHAR
STARTCHAR block
ENCODING 127
SWIDTH 720 0
DWIDTH 12 0
BBX 12 19 0 0
BITMAP
fff0
fff0
fff0
fff0
fff0
fff0
fff0
fff0
fff0
fff0
fff0
fff0
fff0
fff0
fff0
fff0
fff0
fff0
fff0
ENDCHAR
STARTCHAR space
ENCODING 160
SWIDTH 720 0
DWIDTH 12 0
BBX 12 19 0 0
BITMAP
0000
0000
0000
0000
0000
0000
0000
0000
0000
0000
0000
0000
0000
0000
0000
0000
0000
0000
0000
ENDCHAR
STARTCHAR exclam
ENCODING 161
SWIDTH 720 0
DWIDTH 12 0
BBX 12 19 0 0
BITMAP
0300
0300
0300
0300
0300
0300
0300
0300
0300
0300
0300
0300
0300
0300
0300
0300
0300
0300
0300
ENDCHAR
STARTCHAR quotedbl
ENCODING 162
SWIDTH 720 0
DWIDTH 12 0
BBX 12 19 0 0
BITMAP
0cc0
0cc0
0cc0
0cc0
0cc0
0cc0
0cc0
0cc0
0cc0
0cc0
0cc0
0cc0
0000
0000
0000
0000
0000
0000
0000
ENDCHAR
STARTCHAR numbersign
ENCODING 223
SWIDTH 720 0
DWIDTH 12 0
BBX 12 19 0 0
BITMAP
0cc0
0cc0
0cc0
0cc0
0cc0
0cc0
0cc0
0cc0
3ff0
3ff0
3ff0
3ff0
0cc0
0cc0
0cc0
0cc0
3ff0
3ff0
3ff0
ENDCHAR
STARTCHAR dollar
ENCODING 164
SWIDTH 720 0
DWIDTH 12 0
BBX 12 19 0 0
BITMAP
0780
0fc0
1fe0
1fe0
3b70
3b70
3330
3330
3300
3300
3b00
3b00
1f80
1fc0
0fe0
07e0
0370
0370
0330
ENDCHAR
STARTCHAR percent
ENCODING 165
SWIDTH 720 0
DWIDTH 12 0
BBX 12 19 0 0
BITMAP
1800
1800
3c10
3c10
1830
1830
0070
0070
00e0
00e0
01c0
01c0
0380
0380
0700
0700
0e00
0e00
1c00
ENDCHAR
STARTCHAR ampersand
ENCODING 166
SWIDTH 720 0
DWIDTH 12 0
BBX 13 19 0 0
BITMAP
0c00
0c00
1e00
1e00
3f00
3f00
3300
3300
3300
3300
3f00
3f00
1e00
1e00
1e00
1e00
3f30
3f30
33b0
ENDCHAR
STARTCHAR quoteright
ENCODING 167
SWIDTH 720 0
DWIDTH 12 0
BBX 12 19 0 0
BITMAP
0300
0300
0300
0300
0300
0300
0300
0300
0300
0300
0300
0300
0000
0000
0000
0000
0000
0000
0000
ENDCHAR
STARTCHAR parenleft
ENCODING 168
SWIDTH 720 0
DWIDTH 12 0
BBX 12 19 0 0
BITMAP
00c0
00c0
01c0
01c0
0380
0380
0700
0700
0e00
0e00
0c00
0c00
0c00
0c00
0c00
0c00
0c00
0c00
0e00
ENDCHAR
STARTCHAR parenright
ENCODING 169
SWIDTH 720 0
DWIDTH 12 0
BBX 12 19 0 0
BITMAP
0c00
0c00
0e00
0e00
0700
0700
0380
0380
01c0
01c0
00c0
00c0
00c0
00c0
00c0
00c0
00c0
00c0
01c0
ENDCHAR
STARTCHAR asterisk
ENCODING 170
SWIDTH 720 0
DWIDTH 12 0
BBX 12 19 0 0
BITMAP
0300
0300
0300
0300
3330
3330
3b70
3b70
1fe0
1fe0
0fc0
0fc0
0780
0780
0780
0780
0fc0
0fc0
1fe0
ENDCHAR
STARTCHAR plus
ENCODING 171
SWIDTH 720 0
DWIDTH 12 0
BBX 12 19 0 0
BITMAP
0000
0000
0000
0000
0300
0300
0300
0300
0300
0300
0300
3ff0
3ff0
3ff0
3ff0
0300
0300
0300
0300
ENDCHAR
STARTCHAR comma
ENCODING 172
SWIDTH 720 0
DWIDTH 12 0
BBX 12 19 0 0
BITMAP
0000
0000
0000
0000
0000
0000
0000
0000
0000
0000
0000
0000
0000
0000
0000
0000
0300
0300
0300
ENDCHAR
STARTCHAR hyphen
ENCODING 173
SWIDTH 720 0
DWIDTH 12 0
BBX 18 19 0 0
BITMAP
0000
0000
0000
0000
0000
0000
0000
0000
0fc0
0fc0
0fc0
0fc0
0000
0000
0000
0000
0000
0000
0000
ENDCHAR
STARTCHAR period
ENCODING 174
SWIDTH 720 0
DWIDTH 12 0
BBX 12 19 0 0
BITMAP
0000
0000
0000
0000
0000
0000
0000
0000
0000
0000
0000
0000
0000
0000
0000
0000
0000
0000
0000
ENDCHAR
STARTCHAR slash
ENCODING 175
SWIDTH 720 0
DWIDTH 12 0
BBX 12 19 0 0
BITMAP
0000
0000
0000
0010
0030
0030
0070
0070
00e0
00e0
01c0
01c0
0380
0380
0700
0700
0e00
0e00
1c00
ENDCHAR
STARTCHAR zero
ENCODING 176
SWIDTH 720 0
DWIDTH 12 0
BBX 12 19 0 0
BITMAP
0000
0300
0780
0780
0fc0
0fc0
1ce0
1ce0
3870
3870
3030
3030
3030
3030
3030
3030
3030
3030
3870
ENDCHAR
STARTCHAR one
ENCODING 177
SWIDTH 720 0
DWIDTH 12 0
BBX 12 19 0 0
BITMAP
0300
0300
0700
0700
0f00
0f00
0f00
0f00
0300
0300
0300
0300
0300
0300
0300
0300
0300
0300
0300
ENDCHAR
STARTCHAR two
ENCODING 178
SWIDTH 720 0
DWIDTH 12 0
BBX 12 19 0 0
BITMAP
0780
0fc0
1fe0
1ce0
3870
3870
3030
3030
0030
0030
0070
0070
00e0
01e0
03c0
0780
0f00
0e00
1c00
ENDCHAR
STARTCHAR three
ENCODING 179
SWIDTH 720 0
DWIDTH 12 0
BBX 13 19 0 0
BITMAP
3ff0
3ff0
3ff0
3ff0
0030
0030
0070
0070
00e0
00e0
01c0
01c0
03c0
03c0
03e0
03e0
0070
0070
0030
ENDCHAR
STARTCHAR four
ENCODING 180
SWIDTH 720 0
DWIDTH 12 0
BBX 12 19 0 0
BITMAP
00c0
00c0
01c0
01c0
03c0
03c0
07c0
07c0
0ec0
0ec0
1cc0
1cc0
38c0
38c0
30c0
30c0
3ff0
3ff0
3ff0
ENDCHAR
STARTCHAR five
ENCODING 181
SWIDTH 720 0
DWIDTH 12 0
BBX 13 19 0 0
BITMAP
3ff0
3ff0
3ff0
3ff0
3000
3000
3000
3000
3f00
3fc0
3fe0
3ff0
00f0
0070
0030
0030
0030
0030
0030
ENDCHAR
STARTCHAR six
ENCODING 182
SWIDTH 720 0
DWIDTH 12 0
BBX 13 19 0 0
BITMAP
01c0
03c0
0780
0700
0e00
0e00
1c00
1c00
3800
3800
3000
3000
3fc0
3fc0
3fe0
3fe0
3070
3070
3030
ENDCHAR
STARTCHAR seven
ENCODING 183
SWIDTH 720 0
DWIDTH 12 0
BBX 12 19 0 0
BITMAP
3ff0
3ff0
3ff0
3ff0
0030
0030
0070
0070
00e0
00e0
01c0
01c0
0380
0380
0700
0700
0e00
0e00
0c00
ENDCHAR
STARTCHAR eight
ENCODING 184
SWIDTH 720 0
DWIDTH 12 0
BBX 13 19 0 0
BITMAP
0fc0
0fc0
1fe0
1fe0
3870
3870
3030
3030
3030
3030
3870
3870
1fe0
1fe0
1fe0
1fe0
3870
3870
3030
ENDCHAR
STARTCHAR nine
ENCODING 185
SWIDTH 720 0
DWIDTH 12 0
BBX 13 19 0 0
BITMAP
0780
0fc0
1fe0
1fe0
3870
3870
3030
3030
3030
3030
3830
3830
1ff0
1ff0
0ff0
07f0
0030
0030
0070
ENDCHAR
STARTCHAR colon
ENCODING 186
SWIDTH 720 0
DWIDTH 12 0
BBX 12 19 0 0
BITMAP
0000
0000
0000
0000
0000
0000
0000
0000
0300
0300
0300
0300
0000
0000
0000
0000
0000
0000
0000
ENDCHAR
STARTCHAR semicolon
ENCODING 187
SWIDTH 720 0
DWIDTH 12 0
BBX 14 19 0 0
BITMAP
0000
0000
0000
0000
0000
0000
0000
0000
0300
0300
0300
0300
0000
0000
0000
0000
0000
0000
0000
ENDCHAR
STARTCHAR less
ENCODING 188
SWIDTH 720 0
DWIDTH 12 0
BBX 15 19 0 0
BITMAP
00c0
00c0
01c0
01c0
0380
0380
0700
0700
0e00
0e00
1c00
1c00
3800
3800
3800
3800
1c00
1c00
0e00
ENDCHAR
STARTCHAR equal
ENCODING 189
SWIDTH 720 0
DWIDTH 12 0
BBX 12 19 0 0
BITMAP
0000
0000
0000
0000
0000
0000
0000
0000
3ff0
3ff0
3ff0
3ff0
0000
0000
0000
0000
0000
0000
0000
ENDCHAR
STARTCHAR greater
ENCODING 190
SWIDTH 720 0
DWIDTH 12 0
BBX 14 19 0 0
BITMAP
0c00
0c00
0e00
0e00
0700
0700
0380
0380
01c0
01c0
00e0
00e0
0070
0070
0070
0070
00e0
00e0
01c0
ENDCHAR
STARTCHAR question
ENCODING 191
SWIDTH 720 0
DWIDTH 12 0
BBX 12 19 0 0
BITMAP
0780
0fc0
1fe0
1fe0
3870
3870
3070
3070
00e0
00e0
01c0
01c0
0380
0380
0300
0300
0300
0300
0300
ENDCHAR
STARTCHAR at
ENCODING 192
SWIDTH 720 0
DWIDTH 12 0
BBX 13 19 0 0
BITMAP
0780
0fc0
1fe0
1fe0
3870
3870
3030
3030
31f0
31f0
33f0
33f0
3330
3330
3330
3330
33f0
33f0
31e0
ENDCHAR
STARTCHAR A
ENCODING 193
SWIDTH 720 0
DWIDTH 12 0
BBX 12 19 0 0
BITMAP
0300
0300
0780
0780
0fc0
0fc0
1ce0
1ce0
3870
3870
3030
3030
3030
3030
3030
3030
3ff0
3ff0
3ff0
ENDCHAR
STARTCHAR B
ENCODING 194
SWIDTH 720 0
DWIDTH 12 0
BBX 13 19 0 0
BITMAP
3fc0
3fc0
3fe0
3fe0
3070
3070
3030
3030
3030
3030
3070
3070
3fe0
3fe0
3fe0
3fe0
3070
3070
3030
ENDCHAR
STARTCHAR C
ENCODING 195
SWIDTH 720 0
DWIDTH 12 0
BBX 12 19 0 0
BITMAP
0780
0fc0
1fe0
1fe0
3870
3870
3030
3030
3000
3000
3000
3000
3000
3000
3000
3000
3000
3000
3000
ENDCHAR
STARTCHAR D
ENCODING 196
SWIDTH 720 0
DWIDTH 12 0
BBX 16 19 0 0
BITMAP
3f80
3fc0
3fe0
3fe0
3070
3070
3030
3030
3030
3030
3030
3030
3030
3030
3030
3030
3030
3030
3030
ENDCHAR
STARTCHAR E
ENCODING 197
SWIDTH 720 0
DWIDTH 12 0
BBX 12 19 0 0
BITMAP
3ff0
3ff0
3ff0
3ff0
3000
3000
3000
3000
3000
3000
3000
3000
3fc0
3fc0
3fc0
3fc0
3000
3000
3000
ENDCHAR
STARTCHAR F
ENCODING 198
SWIDTH 720 0
DWIDTH 12 0
BBX 12 19 0 0
BITMAP
3ff0
3ff0
3ff0
3ff0
3000
3000
3000
3000
3000
3000
3000
3000
3fc0
3fc0
3fc0
3fc0
3000
3000
3000
ENDCHAR
STARTCHAR G
ENCODING 199
SWIDTH 720 0
DWIDTH 12 0
BBX 15 19 0 0
BITMAP
0780
0fc0
1fe0
1fe0
3870
3870
3030
3030
3000
3000
3000
3000
3000
3000
3000
3000
30f0
30f0
30f0
ENDCHAR
STARTCHAR H
ENCODING 200
SWIDTH 720 0
DWIDTH 12 0
BBX 14 19 0 0
BITMAP
3030
3030
3030
3030
3030
3030
3030
3030
3030
3030
3030
3030
3ff0
3ff0
3ff0
3ff0
3030
3030
3030
ENDCHAR
STARTCHAR I
ENCODING 201
SWIDTH 720 0
DWIDTH 12 0
BBX 12 19 0 0
BITMAP
0fc0
0fc0
0fc0
0fc0
0300
0300
0300
0300
0300
0300
0300
0300
0300
0300
0300
0300
0300
0300
0300
ENDCHAR
STARTCHAR J
ENCODING 202
SWIDTH 720 0
DWIDTH 12 0
BBX 12 19 0 0
BITMAP
0030
0030
0030
0030
0030
0030
0030
0030
0030
0030
0030
0030
0030
0030
0030
0030
0030
0030
0030
ENDCHAR
STARTCHAR K
ENCODING 203
SWIDTH 720 0
DWIDTH 12 0
BBX 12 19 0 0
BITMAP
3030
3030
3070
3070
30e0
30e0
31c0
31c0
3380
3380
3700
3700
3e00
3e00
3e00
3e00
3700
3700
3380
ENDCHAR
STARTCHAR L
ENCODING 204
SWIDTH 720 0
DWIDTH 12 0
BBX 12 19 0 0
BITMAP
3000
3000
3000
3000
3000
3000
3000
3000
3000
3000
3000
3000
3000
3000
3000
3000
3000
3000
3000
ENDCHAR
STARTCHAR M
ENCODING 205
SWIDTH 720 0
DWIDTH 12 0
BBX 13 19 0 0
BITMAP
3030
3030
3870
3870
3cf0
3cf0
3ff0
3ff0
37b0
37b0
3330
3330
3030
3030
3030
3030
3030
3030
3030
ENDCHAR
STARTCHAR N
ENCODING 206
SWIDTH 720 0
DWIDTH 12 0
BBX 16 19 0 0
BITMAP
3030
3030
3030
3030
3030
3030
3830
3830
3c30
3c30
3e30
3e30
3730
3730
33b0
33b0
31f0
31f0
30f0
ENDCHAR
STARTCHAR O
ENCODING 207
SWIDTH 720 0
DWIDTH 12 0
BBX 12 19 0 0
BITMAP
0780
0fc0
1fe0
1fe0
3870
3870
3030
3030
3030
3030
3030
3030
3030
3030
3030
3030
3030
3030
3030
ENDCHAR
STARTCHAR P
ENCODING 208
SWIDTH 720 0
DWIDTH 12 0
BBX 12 19 0 0
BITMAP
3f80
3fc0
3fe0
3fe0
3070
3070
3030
3030
3030
3030
3070
3070
3fe0
3fe0
3fc0
3f80
3000
3000
3000
ENDCHAR
STARTCHAR Q
ENCODING 209
SWIDTH 720 0
DWIDTH 12 0
BBX 12 19 0 0
BITMAP
0780
0fc0
1fe0
1fe0
3870
3870
3030
3030
3030
3030
3030
3030
3030
3030
3030
3030
3330
3330
33b0
ENDCHAR
STARTCHAR R
ENCODING 210
SWIDTH 720 0
DWIDTH 12 0
BBX 12 19 0 0
BITMAP
3f80
3fc0
3fe0
3fe0
3070
3070
3030
3030
3030
3030
3070
3070
3fe0
3fe0
3fc0
3fc0
3700
3700
3380
ENDCHAR
STARTCHAR S
ENCODING 211
SWIDTH 720 0
DWIDTH 12 0
BBX 12 19 0 0
BITMAP
0780
0fc0
1fe0
1fe0
3870
3870
3030
3030
3000
3000
3800
3c00
1f00
1fc0
0fe0
03e0
00f0
0070
0030
ENDCHAR
STARTCHAR T
ENCODING 212
SWIDTH 720 0
DWIDTH 12 0
BBX 12 19 0 0
BITMAP
3ff0
3ff0
3ff0
3ff0
0300
0300
0300
0300
0300
0300
0300
0300
0300
0300
0300
0300
0300
0300
0300
ENDCHAR
STARTCHAR U
ENCODING 213
SWIDTH 720 0
DWIDTH 12 0
BBX 12 19 0 0
BITMAP
3030
3030
3030
3030
3030
3030
3030
3030
3030
3030
3030
3030
3030
3030
3030
3030
3030
3030
3030
ENDCHAR
STARTCHAR V
ENCODING 214
SWIDTH 720 0
DWIDTH 12 0
BBX 12 19 0 0
BITMAP
3030
3030
3030
3030
3030
3030
3030
3030
3030
3030
3870
3870
1ce0
1ce0
0cc0
0cc0
0cc0
0cc0
0fc0
ENDCHAR
STARTCHAR W
ENCODING 215
SWIDTH 720 0
DWIDTH 12 0
BBX 12 19 0 0
BITMAP
3030
3030
3030
3030
3030
3030
3030
3030
3030
3030
3030
3030
3330
3330
3330
3330
3330
3330
3330
ENDCHAR
STARTCHAR X
ENCODING 216
SWIDTH 720 0
DWIDTH 12 0
BBX 12 19 0 0
BITMAP
3030
3030
3030
3030
3030
3030
3870
3870
1ce0
1ce0
0fc0
0fc0
0780
0780
0780
0780
0fc0
0fc0
1ce0
ENDCHAR
STARTCHAR Y
ENCODING 217
SWIDTH 720 0
DWIDTH 12 0
BBX 12 19 0 0
BITMAP
3030
3030
3030
3030
3030
3030
3870
3870
1ce0
1ce0
0fc0
0fc0
0780
0780
0300
0300
0300
0300
0300
ENDCHAR
STARTCHAR Z
ENCODING 218
SWIDTH 720 0
DWIDTH 12 0
BBX 12 19 0 0
BITMAP
3ff0
3ff0
3ff0
3ff0
0030
0030
0070
0070
00e0
00e0
01c0
01c0
0380
0380
0700
0700
0e00
0e00
1c00
ENDCHAR
STARTCHAR bracketleft
ENCODING 219
SWIDTH 720 0
DWIDTH 12 0
BBX 12 19 0 0
BITMAP
0000
0000
0000
0000
0300
0300
0700
0700
0e00
0e00
1c00
1c00
3ff0
3ff0
3ff0
3ff0
1c00
1c00
0e00
ENDCHAR
STARTCHAR backslash
ENCODING 220
SWIDTH 720 0
DWIDTH 12 0
BBX 13 19 0 0
BITMAP
3000
3000
3000
3000
3000
3000
3000
3000
3000
3000
3000
3000
3000
3000
3000
3000
33c0
33c0
33e0
ENDCHAR
STARTCHAR bracketright
ENCODING 221
SWIDTH 720 0
DWIDTH 12 0
BBX 12 19 0 0
BITMAP
0000
0000
0000
0000
0300
0300
0380
0380
01c0
01c0
00e0
00e0
3ff0
3ff0
3ff0
3ff0
00e0
00e0
01c0
ENDCHAR
STARTCHAR asciicircum
ENCODING 222
SWIDTH 720 0
DWIDTH 12 0
BBX 12 19 0 0
BITMAP
0000
0000
0000
0000
0300
0300
0780
0780
0fc0
0fc0
1fe0
1fe0
3b70
3b70
3330
3330
0300
0300
0300
ENDCHAR
STARTCHAR underscore
ENCODING 224
SWIDTH 720 0
DWIDTH 12 0
BBX 12 19 0 0
BITMAP
0000
0000
0000
0000
0000
0000
0000
0000
3ff0
3ff0
3ff0
3ff0
0000
0000
0000
0000
0000
0000
0000
ENDCHAR
STARTCHAR quoteleft
ENCODING 163
SWIDTH 720 0
DWIDTH 12 0
BBX 13 19 0 0
BITMAP
0180
03c0
07e0
07e0
0e70
0e70
0c30
0c30
0c00
0c00
0c00
0c00
0c00
0c00
0c00
0c00
3f00
3f00
3f00
ENDCHAR
STARTCHAR a
ENCODING 225
SWIDTH 720 0
DWIDTH 12 0
BBX 12 19 0 0
BITMAP
0000
0000
0000
0000
0000
0000
0000
0000
0fc0
0fc0
0fe0
0fe0
0070
0070
0030
0030
0ff0
0ff0
1ff0
ENDCHAR
STARTCHAR b
ENCODING 226
SWIDTH 720 0
DWIDTH 12 0
BBX 13 19 0 0
BITMAP
3000
3000
3000
3000
3000
3000
3000
3000
3fc0
3fc0
3fe0
3fe0
3070
3070
3030
3030
3030
3030
3030
ENDCHAR
STARTCHAR c
ENCODING 227
SWIDTH 720 0
DWIDTH 12 0
BBX 12 19 0 0
BITMAP
0000
0000
0000
0000
0000
0000
0000
0000
0ff0
0ff0
1ff0
1ff0
3800
3800
3000
3000
3000
3000
3000
ENDCHAR
STARTCHAR d
ENCODING 228
SWIDTH 720 0
DWIDTH 12 0
BBX 12 19 0 0
BITMAP
0030
0030
0030
0030
0030
0030
0030
0030
0ff0
0ff0
1ff0
1ff0
3830
3830
3030
3030
3030
3030
3030
ENDCHAR
STARTCHAR e
ENCODING 229
SWIDTH 720 0
DWIDTH 12 0
BBX 12 19 0 0
BITMAP
0000
0000
0000
0000
0000
0000
0000
0000
0780
0fc0
1fe0
1fe0
3870
3870
3030
3030
3ff0
3ff0
3ff0
ENDCHAR
STARTCHAR f
ENCODING 230
SWIDTH 720 0
DWIDTH 12 0
BBX 12 19 0 0
BITMAP
0040
00c0
01c0
01c0
0380
0380
0300
0300
0300
0300
0300
0300
0fc0
0fc0
0fc0
0fc0
0300
0300
0300
ENDCHAR
STARTCHAR g
ENCODING 231
SWIDTH 720 0
DWIDTH 12 0
BBX 13 19 0 0
BITMAP
0000
0000
0000
0000
0000
0000
0000
0000
0ff0
0ff0
1ff0
1ff0
3830
3830
3030
3030
3030
3030
3030
ENDCHAR
STARTCHAR h
ENCODING 232
SWIDTH 720 0
DWIDTH 12 0
BBX 12 19 0 0
BITMAP
3000
3000
3000
3000
3000
3000
3000
3000
3fc0
3fc0
3fe0
3fe0
3070
3070
3030
3030
3030
3030
3030
ENDCHAR
STARTCHAR i
ENCODING 233
SWIDTH 720 0
DWIDTH 12 0
BBX 12 19 0 0
BITMAP
0300
0300
0300
0300
0000
0000
0000
0000
0f00
0f00
0f00
0f00
0300
0300
0300
0300
0300
0300
0300
ENDCHAR
STARTCHAR j
ENCODING 234
SWIDTH 720 0
DWIDTH 12 0
BBX 12 19 0 0
BITMAP
0300
0300
0300
0300
0000
0000
0000
0000
0300
0300
0300
0300
0300
0300
0300
0300
0300
0300
0300
ENDCHAR
STARTCHAR k
ENCODING 235
SWIDTH 720 0
DWIDTH 12 0
BBX 12 19 0 0
BITMAP
0c00
0c00
0c00
0c00
0c00
0c00
0c00
0c00
0c30
0c30
0c70
0c70
0ce0
0ce0
0dc0
0dc0
0f80
0f80
0f80
ENDCHAR
STARTCHAR l
ENCODING 236
SWIDTH 720 0
DWIDTH 12 0
BBX 12 19 0 0
BITMAP
0f00
0f00
0f00
0f00
0300
0300
0300
0300
0300
0300
0300
0300
0300
0300
0300
0300
0300
0300
0300
ENDCHAR
STARTCHAR m
ENCODING 237
SWIDTH 720 0
DWIDTH 12 0
BBX 13 19 0 0
BITMAP
0000
0000
0000
0000
0000
0000
0000
0000
0000
3cc0
3fe0
3fe0
37f0
3330
3330
3330
3330
3330
3330
ENDCHAR
STARTCHAR n
ENCODING 238
SWIDTH 720 0
DWIDTH 12 0
BBX 12 19 0 0
BITMAP
0000
0000
0000
0000
0000
0000
0000
0000
3f80
3fc0
3fe0
3fe0
3070
3070
3030
3030
3030
3030
3030
ENDCHAR
STARTCHAR o
ENCODING 239
SWIDTH 720 0
DWIDTH 12 0
BBX 12 19 0 0
BITMAP
0000
0000
0000
0000
0000
0000
0000
0000
0780
0fc0
1fe0
1fe0
3870
3870
3030
3030
3030
3030
3030
ENDCHAR
STARTCHAR p
ENCODING 240
SWIDTH 720 0
DWIDTH 12 0
BBX 12 19 0 0
BITMAP
0000
0000
0000
0000
0000
0000
0000
0000
3f80
3fc0
3fe0
3fe0
3070
3070
3030
3030
3030
3030
3030
ENDCHAR
STARTCHAR q
ENCODING 241
SWIDTH 720 0
DWIDTH 12 0
BBX 12 19 0 0
BITMAP
0000
0000
0000
0000
0000
0000
0000
0000
07f0
0ff0
1ff0
1ff0
3830
3830
3030
3030
3030
3030
3030
ENDCHAR
STARTCHAR r
ENCODING 242
SWIDTH 720 0
DWIDTH 12 0
BBX 12 19 0 0
BITMAP
0000
0000
0000
0000
0000
0000
0000
0000
0c70
0cf0
0df0
0dc0
0f80
0f80
0f00
0f00
0c00
0c00
0c00
ENDCHAR
STARTCHAR s
ENCODING 243
SWIDTH 720 0
DWIDTH 12 0
BBX 12 19 0 0
BITMAP
0000
0000
0000
0000
0000
0000
0000
0000
07f0
0ff0
1ff0
1ff0
3800
3800
3800
3800
1fc0
1fc0
0fe0
ENDCHAR
STARTCHAR t
ENCODING 244
SWIDTH 720 0
DWIDTH 12 0
BBX 12 19 0 0
BITMAP
0300
0300
0300
0300
0300
0300
0300
0300
0fc0
0fc0
0fc0
0fc0
0300
0300
0300
0300
0300
0300
0300
ENDCHAR
STARTCHAR u
ENCODING 245
SWIDTH 720 0
DWIDTH 12 0
BBX 13 19 0 0
BITMAP
0000
0000
0000
0000
0000
0000
0000
0000
3030
3030
3030
3030
3030
3030
3030
3030
3030
3030
3030
ENDCHAR
STARTCHAR v
ENCODING 246
SWIDTH 720 0
DWIDTH 12 0
BBX 12 19 0 0
BITMAP
0000
0000
0000
0000
0000
0000
0000
0000
3030
3030
3030
3030
3030
3030
3870
3870
1ce0
1ce0
0cc0
ENDCHAR
STARTCHAR w
ENCODING 247
SWIDTH 720 0
DWIDTH 12 0
BBX 12 19 0 0
BITMAP
0000
0000
0000
0000
0000
0000
0000
0000
3030
3030
3030
3030
3030
3030
3030
3030
3330
3330
3330
ENDCHAR
STARTCHAR x
ENCODING 248
SWIDTH 720 0
DWIDTH 12 0
BBX 12 19 0 0
BITMAP
0000
0000
0000
0000
0000
0000
0000
0000
3030
3030
3870
3870
1ce0
1ce0
0fc0
0fc0
0780
0780
0780
ENDCHAR
STARTCHAR y
ENCODING 249
SWIDTH 720 0
DWIDTH 12 0
BBX 12 19 0 0
BITMAP
0000
0000
0000
0000
0000
0000
0000
0000
3030
3030
3030
3030
3030
3030
3030
3030
3030
3030
3030
ENDCHAR
STARTCHAR z
ENCODING 250
SWIDTH 720 0
DWIDTH 12 0
BBX 12 19 0 0
BITMAP
0000
0000
0000
0000
0000
0000
0000
0000
3ff0
3ff0
3ff0
3ff0
00e0
00e0
01c0
01c0
0380
0380
0700
ENDCHAR
STARTCHAR braceleft
ENCODING 251
SWIDTH 720 0
DWIDTH 12 0
BBX 12 19 0 0
BITMAP
0c00
0c00
0c00
0c00
0c00
0c00
0c00
0c00
0c00
0c00
0c00
0c00
0c00
0c00
0c00
0c00
0c30
0c30
0c70
ENDCHAR
STARTCHAR bar
ENCODING 252
SWIDTH 720 0
DWIDTH 12 0
BBX 12 19 0 0
BITMAP
0cc0
0cc0
0cc0
0cc0
0cc0
0cc0
0cc0
0cc0
0cc0
0cc0
0cc0
0cc0
0cc0
0cc0
0cc0
0cc0
0cc0
0cc0
0cc0
ENDCHAR
STARTCHAR braceright
ENCODING 253
SWIDTH 720 0
DWIDTH 12 0
BBX 12 19 0 0
BITMAP
3800
3c00
3e00
3e00
0700
0700
0700
0700
3e00
3e00
3e00
3e00
0700
0700
0700
0700
3e30
3e30
3c70
ENDCHAR
STARTCHAR divide
ENCODING 254
SWIDTH 720 0
DWIDTH 12 0
BBX 12 19 0 0
BITMAP
0000
0000
0000
0000
0300
0300
0300
0300
0000
0000
0000
0000
3ff0
3ff0
3ff0
3ff0
0000
0000
0000
ENDCHAR
STARTCHAR block
ENCODING 255
SWIDTH 720 0
DWIDTH 12 0
BBX 12 19 0 0
BITMAP
fff0
fff0
fff0
fff0
fff0
fff0
fff0
fff0
fff0
fff0
fff0
fff0
fff0
fff0
fff0
fff0
fff0
fff0
fff0
ENDCHAR
ENDFONT
